<svg version="1.1" id="Layer_1" xmlns="http://www.w3.org/2000/svg" xmlns:xlink="http://www.w3.org/1999/xlink" x="0px" y="0px"
	 width="100%" viewBox="0 0 750 750" enable-background="new 0 0 750 750" xml:space="preserve">
<path fill="#46C3D0" opacity="1.000000" stroke="none" 
	d="
M404.000000,751.000000 
	C385.645782,751.000000 367.291534,751.000000 348.240112,750.641235 
	C340.337280,749.528076 333.130920,748.780090 325.926056,748.018311 
	C303.163544,745.611511 281.081299,740.139954 259.357086,733.115784 
	C233.148300,724.641602 208.278091,713.233826 184.535034,699.251404 
	C159.743561,684.651672 136.944351,667.393677 116.257927,647.508484 
	C105.426994,637.097046 95.689735,625.519531 85.766319,614.198914 
	C69.769264,595.949402 56.714542,575.597473 45.230225,554.327576 
	C33.512604,532.625488 23.969616,509.941681 16.879238,486.225616 
	C10.138984,463.680786 5.049982,440.866211 2.950199,417.404175 
	C2.548329,412.913879 1.662534,408.466949 0.999999,404.000000 
	C1.000000,385.645782 1.000000,367.291534 1.358797,348.240143 
	C2.471909,340.337280 3.219911,333.130951 3.981708,325.926056 
	C6.388456,303.163544 11.860000,281.081329 18.884134,259.357147 
	C27.358307,233.148315 38.802357,208.298965 52.738518,184.529297 
	C67.296738,159.698654 84.675316,136.995346 104.497002,116.262650 
	C114.877068,105.405533 126.474098,95.682404 137.802429,85.768112 
	C156.062210,69.787582 176.371017,56.673092 197.667709,45.222019 
	C219.390976,33.541580 242.058319,23.969635 265.774384,16.879240 
	C288.319214,10.139005 311.133789,5.049989 334.595825,2.950201 
	C339.086121,2.548334 343.533051,1.662536 348.000000,1.000000 
	C366.354218,1.000000 384.708466,1.000000 403.759857,1.358797 
	C411.662750,2.471910 418.869141,3.219897 426.074066,3.981720 
	C448.836548,6.388538 470.918762,11.860015 492.642944,18.884192 
	C518.851746,27.358391 543.721924,38.766251 567.464966,52.748558 
	C592.256409,67.348289 615.055603,84.606262 635.741943,104.491486 
	C646.572876,114.902916 656.310059,126.480400 666.233521,137.801041 
	C682.230652,156.050552 695.285461,176.402451 706.769714,197.672424 
	C718.487305,219.374542 728.030396,242.058273 735.120789,265.774353 
	C741.861023,288.319183 746.950012,311.133759 749.049805,334.595795 
	C749.451660,339.086090 750.337463,343.533051 751.000000,348.000000 
	C751.000000,366.354218 751.000000,384.708466 750.641235,403.759888 
	C749.528076,411.662750 748.780090,418.869080 748.018250,426.073975 
	C745.611450,448.836487 740.140015,470.918732 733.115845,492.642914 
	C724.641602,518.851807 713.233765,543.721985 699.251343,567.465027 
	C684.651550,592.256409 667.393799,615.055725 647.508484,635.741943 
	C637.097046,646.572815 625.519653,656.310181 614.198914,666.233582 
	C595.949402,682.230591 575.597656,695.285522 554.327698,706.769836 
	C532.625488,718.487427 509.941711,728.030334 486.225647,735.120789 
	C463.680786,741.860962 440.866241,746.950012 417.404205,749.049805 
	C412.913910,749.451660 408.466949,750.337463 404.000000,751.000000 
M154.540054,520.083008 
	C155.102936,517.943176 156.143112,515.805908 156.154968,513.663025 
	C156.275681,491.840271 156.320892,470.015839 156.136826,448.193939 
	C156.106796,444.633667 157.174286,442.436920 160.420044,441.360992 
	C166.228867,439.435486 171.950638,436.871307 177.924805,435.892548 
	C194.661179,433.150726 200.744278,438.639832 200.766006,455.590668 
	C200.788635,473.249298 200.724121,490.908112 200.786987,508.566559 
	C200.831970,521.201538 198.839340,520.977783 213.230408,520.874023 
	C220.160538,520.824097 220.867310,520.125854 220.869965,513.082458 
	C220.878189,491.259033 220.816742,469.435242 220.974228,447.612946 
	C220.987076,445.832336 221.964905,443.232758 223.329895,442.424133 
	C231.184204,437.771149 239.834900,435.341278 248.965744,435.070923 
	C257.876617,434.807098 262.621857,438.693756 264.415161,447.411987 
	C264.846527,449.509033 264.966034,451.701355 264.970276,453.850372 
	C265.010498,474.174377 265.007751,494.498566 264.980225,514.822632 
	C264.976379,517.680298 265.230560,520.787231 268.792908,520.607361 
	C274.151306,520.336792 280.105591,523.282166 284.725769,518.270081 
	C285.171875,517.786133 284.994385,516.665833 284.994293,515.840942 
	C284.992218,492.185272 285.189301,468.526764 284.874512,444.875092 
	C284.708679,432.415558 277.605072,423.442596 266.401031,420.528473 
	C256.574432,417.972626 246.798538,419.126648 237.466522,422.627716 
	C230.533752,425.228668 223.968979,428.810516 217.213501,431.967987 
	C208.437164,416.509918 184.041626,413.664520 155.281967,431.305023 
	C154.982620,430.330505 154.501007,429.425507 154.453598,428.498291 
	C154.189911,423.340820 151.370438,421.507904 146.501358,422.109283 
	C145.516830,422.230896 144.504410,422.123383 143.504883,422.127411 
	C136.843750,422.154236 136.136856,422.838654 136.132874,429.618134 
	C136.117935,454.939972 136.126785,480.261810 136.126755,505.583649 
	C136.126740,522.304382 136.684845,522.775696 154.540054,520.083008 
M253.127563,282.500000 
	C253.128616,291.494934 253.193558,300.490601 253.096130,309.484467 
	C253.061920,312.642242 254.279861,314.113342 257.498260,314.023041 
	C260.993530,313.924957 264.516937,313.749969 267.986298,314.066315 
	C272.851898,314.509949 274.386597,312.524200 274.308929,307.767120 
	C274.080475,293.778503 274.165833,279.783234 274.275635,265.791718 
	C274.300262,262.655273 274.583130,259.436523 275.353333,256.409912 
	C276.529358,251.788635 281.080444,248.757263 285.466888,249.114471 
	C290.294617,249.507614 292.668213,252.039658 293.341156,257.727509 
	C293.614105,260.034698 293.748047,262.371307 293.753754,264.695007 
	C293.790161,279.520203 293.830078,294.345856 293.729858,309.170410 
	C293.707550,312.469208 294.679047,314.183716 298.259979,314.039368 
	C302.251312,313.878510 306.255341,313.940460 310.251526,314.020874 
	C313.423401,314.084686 314.728485,312.701172 314.673004,309.495422 
	C314.577911,304.003601 314.846741,298.506195 314.789856,293.012909 
	C314.629639,277.538818 314.854889,262.039032 313.987305,246.602234 
	C313.481354,237.599915 306.791931,231.556396 297.908569,229.968475 
	C286.449738,227.920166 277.978424,232.288559 272.376190,242.605637 
	C264.194000,225.484650 243.016769,224.886505 233.103897,241.327866 
	C233.006195,239.754227 232.900253,238.678375 232.878922,237.600830 
	C232.755341,231.356873 232.431931,231.000443 226.400940,231.002716 
	C223.236984,231.003906 220.071426,231.169983 216.909592,231.108307 
	C213.932236,231.050247 212.748840,232.395432 212.753967,235.334045 
	C212.797256,260.153748 212.799698,284.973602 212.750046,309.793274 
	C212.744156,312.738342 213.901810,314.089325 216.882111,314.021332 
	C220.544846,313.937775 224.226624,313.790924 227.871719,314.058655 
	C232.505112,314.398956 234.002213,312.439850 233.942444,307.931549 
	C233.752502,293.608582 233.790833,279.280640 233.934433,264.956573 
	C233.967377,261.672211 234.352493,258.264221 235.322983,255.145706 
	C236.843582,250.259445 241.778809,247.891022 246.487518,249.298569 
	C251.563797,250.815994 252.723251,255.090073 252.914352,259.518768 
	C253.230087,266.835297 253.080856,274.171875 253.127563,282.500000 
M330.008423,442.502197 
	C330.008423,440.668915 330.039276,438.835052 330.003540,437.002472 
	C329.717590,422.336395 333.048920,423.314240 315.381134,423.373108 
	C311.642914,423.385559 310.066742,425.125092 310.081543,428.938568 
	C310.169556,451.604675 309.926514,474.273621 310.191467,496.936951 
	C310.396881,514.509094 321.117432,524.737671 338.560486,524.893555 
	C350.047791,524.996216 360.534973,521.711304 370.340485,515.934448 
	C372.416534,514.711365 374.477417,513.462585 376.673676,512.148865 
	C377.008423,513.565063 377.374481,514.525024 377.444000,515.506042 
	C377.819092,520.798157 380.696655,522.781006 385.786713,522.025269 
	C386.602051,521.904236 387.450867,522.011108 388.284180,522.007874 
	C395.028046,521.981628 395.227142,521.795654 395.229156,514.899048 
	C395.236908,488.399323 395.289093,461.899384 395.207123,435.399933 
	C395.169495,423.243408 397.453949,423.251526 383.049408,423.363983 
	C376.025116,423.418793 375.374481,424.039886 375.370270,431.093811 
	C375.357452,452.593597 375.418060,474.093719 375.272125,495.592499 
	C375.259430,497.459259 374.487457,500.174683 373.136047,501.040009 
	C364.391174,506.639252 354.786377,509.694855 344.267212,508.919250 
	C337.150055,508.394531 332.576416,504.424561 331.016357,497.398132 
	C330.373016,494.500580 330.070251,491.472168 330.051636,488.500488 
	C329.957703,473.501221 330.008453,458.501068 330.008423,442.502197 
M577.876892,282.500183 
	C577.879089,276.835632 577.494751,271.135437 578.013367,265.518555 
	C578.386597,261.476166 579.453064,257.310028 581.146301,253.629684 
	C582.870789,249.881454 586.546265,248.339066 590.803833,249.013870 
	C594.826782,249.651505 596.800415,252.493500 597.596924,256.105225 
	C598.164368,258.678314 598.321228,261.383240 598.333069,264.030792 
	C598.399475,278.858337 598.447937,293.687073 598.313477,308.513702 
	C598.276428,312.604309 599.794067,314.303284 603.914246,314.054626 
	C607.566223,313.834229 611.251465,313.843384 614.904785,314.052521 
	C618.847656,314.278229 620.132202,312.644104 620.075317,308.763672 
	C619.894775,296.437561 620.113770,284.105865 619.971558,271.778748 
	C619.877563,263.634277 620.040344,255.414505 618.996277,247.370148 
	C617.394714,235.030319 607.437927,228.155319 595.047852,229.480438 
	C586.652649,230.378342 581.279785,235.180130 577.084229,242.231842 
	C576.634277,240.229828 576.487244,238.447983 576.663086,236.698608 
	C577.107117,232.282318 575.112000,230.648285 570.830994,230.951004 
	C567.347900,231.197281 563.838440,231.150650 560.342285,231.107422 
	C557.436523,231.071518 556.098389,232.282104 556.103638,235.280090 
	C556.147217,260.104156 556.139465,284.928345 556.114929,309.752472 
	C556.112061,312.658173 557.384399,314.053955 560.327454,314.015442 
	C564.325195,313.963043 568.332886,313.842957 572.320374,314.053497 
	C576.427246,314.270294 578.012146,312.583344 577.927307,308.489777 
	C577.754883,300.163086 577.876465,291.830353 577.876892,282.500183 
M362.360870,245.729507 
	C370.445251,246.968109 372.867035,251.001633 371.546844,261.499146 
	C367.224030,262.007080 362.787506,262.436890 358.379303,263.065460 
	C349.396515,264.346344 340.676880,266.253418 334.151672,273.395813 
	C322.390869,286.268982 327.433075,308.795135 343.213257,312.629974 
	C353.380676,315.100800 363.059692,313.622833 371.328125,306.503448 
	C372.518250,305.478729 373.776215,304.532776 374.921478,303.615509 
	C377.206940,306.242126 379.052948,308.373352 380.909668,310.495239 
	C383.663269,313.642059 386.343872,313.694519 389.365112,310.665344 
	C391.706238,308.318024 394.307648,306.191803 396.984985,304.228638 
	C399.927063,302.071381 400.233337,299.903809 397.850586,297.168549 
	C394.151001,292.921692 393.090668,287.904266 393.167969,282.346893 
	C393.309143,272.197571 393.235779,262.038666 392.955597,251.891953 
	C392.694153,242.424057 387.850891,235.996964 379.053986,232.515198 
	C371.394440,229.483582 363.435364,229.226120 355.476379,230.481186 
	C344.526367,232.207916 335.511414,236.983459 331.523743,248.169907 
	C330.676270,250.547241 328.614502,253.676910 332.628967,255.450546 
	C337.650208,257.668945 348.683807,257.125305 349.891266,254.709717 
	C349.964050,254.564087 349.976807,254.389130 350.022919,254.229355 
	C351.685760,248.468201 355.779144,245.979752 362.360870,245.729507 
M135.019424,303.304443 
	C144.243484,316.950043 159.220200,317.168091 179.250214,303.869995 
	C181.310455,306.180389 183.381058,308.514038 185.464661,310.835999 
	C187.976791,313.635559 190.460373,313.522064 193.178314,310.989838 
	C195.733536,308.609222 198.388992,306.306122 201.196243,304.234375 
	C204.108154,302.085358 204.499466,299.988281 202.067261,297.222839 
	C198.094330,292.705536 197.138641,287.247070 197.198334,281.407135 
	C197.298752,271.582062 197.315170,261.752686 197.139801,251.929214 
	C196.986053,243.317993 193.001953,236.680573 185.076935,233.352921 
	C172.111969,227.909073 159.072418,228.361771 146.560852,235.018768 
	C140.366989,238.314316 136.574005,243.749725 135.060394,250.584549 
	C134.757278,251.953323 135.347458,254.782379 135.895889,254.881058 
	C141.101761,255.817780 146.388397,256.671753 151.649796,256.660004 
	C152.870789,256.657288 154.063889,253.252762 155.310318,251.441437 
	C155.872894,250.623917 156.469421,249.810471 157.162659,249.105408 
	C160.516388,245.694504 166.781372,244.678238 171.062088,246.803543 
	C175.494736,249.004303 176.925385,253.585602 175.585480,261.150696 
	C167.880890,262.451263 160.058624,263.182037 152.563385,265.155151 
	C134.936981,269.795288 127.520119,285.778717 135.019424,303.304443 
M453.817596,524.457214 
	C457.981659,523.354004 462.348694,522.727417 466.271088,521.056824 
	C477.284088,516.366272 483.678070,508.253845 484.292419,495.832123 
	C484.919067,483.161926 478.957031,474.951172 467.864380,469.918030 
	C463.781494,468.065399 459.538239,466.569519 455.406067,464.821350 
	C449.290253,462.234009 443.114746,459.759918 437.142792,456.869629 
	C432.750580,454.743958 431.350769,450.743530 431.765381,445.985779 
	C432.192047,441.089203 434.877716,437.923035 439.371490,436.493469 
	C442.185730,435.598236 445.281372,434.741943 448.144989,435.007751 
	C456.385010,435.772522 464.565002,437.167114 472.783936,438.190979 
	C474.473785,438.401489 476.716339,438.726562 477.860199,437.870758 
	C480.695465,435.749634 478.876526,425.498535 475.415527,424.241760 
	C460.496521,418.824188 445.323151,416.637939 430.160614,423.036591 
	C420.055084,427.301117 413.766052,434.898041 413.161011,446.255981 
	C412.542145,457.873444 417.568634,466.514160 427.719452,472.088562 
	C430.621338,473.682220 433.747253,474.887207 436.823303,476.140656 
	C444.363831,479.213409 451.999695,482.061462 459.469482,485.295013 
	C463.815735,487.176422 466.097839,490.839691 465.936096,495.649261 
	C465.766815,500.682861 463.618042,504.941284 458.881012,506.830231 
	C455.260559,508.273987 451.085358,509.531708 447.319489,509.171753 
	C437.443970,508.227783 427.666931,506.284546 417.826294,504.914795 
	C416.080688,504.671814 413.356628,504.595978 412.562653,505.605560 
	C409.638184,509.324188 412.625000,518.066223 417.115112,519.806458 
	C428.659119,524.280701 440.643097,525.601013 453.817596,524.457214 
M525.787354,233.617310 
	C508.948761,225.222763 490.575867,229.444473 482.295776,244.746964 
	C472.621338,262.626434 472.510803,281.289215 482.664948,299.027496 
	C492.737335,316.623016 517.165344,319.259766 531.643616,305.011139 
	C539.528198,297.251648 543.041321,287.431152 543.567383,276.716522 
	C544.388733,259.986694 541.493469,244.468323 525.787354,233.617310 
M350.337341,354.005737 
	C338.046021,354.050873 325.721375,354.701782 313.469543,354.028259 
	C275.904541,351.963165 240.474030,341.925659 207.263916,324.175323 
	C206.091385,323.548615 204.952118,322.709015 203.696030,322.437653 
	C202.715866,322.225891 200.822037,322.502014 200.667252,322.986877 
	C200.341385,324.007660 200.622711,325.450958 201.157623,326.452240 
	C201.672302,327.415710 202.777390,328.096832 203.696991,328.806183 
	C268.516418,378.805267 338.420013,385.953552 412.883026,353.350281 
	C419.227966,350.572144 425.059967,346.525116 430.847992,342.646362 
	C432.159027,341.767792 432.291504,339.130524 432.966492,337.302826 
	C431.032959,336.825867 429.118408,336.131226 427.158173,335.959930 
	C426.111511,335.868469 424.979004,336.662903 423.896881,337.087250 
	C400.510773,346.258270 376.250061,351.667023 350.337341,354.005737 
M594.568420,508.357635 
	C575.943115,507.104309 567.186340,499.899811 565.340881,482.760345 
	C564.478943,474.755188 564.797241,466.415344 565.999329,458.441040 
	C568.152588,444.157013 576.699829,436.610657 591.120361,436.178802 
	C598.669922,435.952759 606.268982,437.583893 613.856750,438.249908 
	C615.374207,438.383087 617.509888,438.520782 618.382935,437.662262 
	C621.325623,434.768707 618.875244,424.115784 614.897949,423.132446 
	C608.158203,421.466125 601.275269,419.684937 594.394165,419.408997 
	C569.295898,418.402618 551.529175,430.932739 545.666260,453.487885 
	C542.121521,467.124481 542.350159,480.910187 546.414062,494.419098 
	C550.761841,508.871613 560.313477,518.505371 574.914978,522.609802 
	C586.861816,525.968018 598.956726,525.844299 610.918823,522.502319 
	C619.852356,520.006409 620.343018,518.964783 620.059387,509.492218 
	C619.941772,505.561157 618.396118,504.712463 614.697510,505.427399 
	C608.354858,506.653442 601.921265,507.409363 594.568420,508.357635 
M465.964050,236.877640 
	C465.647980,233.461731 463.089569,233.775818 460.755402,233.774033 
	C447.756561,233.764023 434.757751,233.768433 421.758911,233.768204 
	C409.559814,233.767990 409.243530,234.191971 410.334503,246.316406 
	C410.627655,249.574051 412.329071,250.625702 415.227631,250.625671 
	C419.893860,250.625626 424.560089,250.631439 429.226318,250.633530 
	C432.083710,250.634811 434.941101,250.633743 438.823059,250.633743 
	C430.463562,262.536957 423.340607,273.611969 415.232513,283.911469 
	C409.392853,291.329437 406.839142,299.054810 407.681671,308.349976 
	C408.222168,314.313171 408.681732,314.893188 414.155609,312.486389 
	C429.623871,305.685211 445.137665,305.778046 460.650818,312.272614 
	C466.422394,314.688873 467.534363,314.021454 467.629913,307.675018 
	C467.649963,306.342072 467.511353,304.995361 467.654694,303.677704 
	C468.266632,298.051422 466.104523,294.229004 460.475677,292.872894 
	C452.990112,291.069397 445.460144,289.450104 437.702332,287.695831 
	C445.028076,277.321045 452.446930,266.312164 460.424255,255.724014 
	C464.551788,250.245621 466.967255,244.655045 465.964050,236.877640 
M522.639587,441.506409 
	C522.635864,437.180328 522.565125,432.852966 522.650146,428.528625 
	C522.715759,425.194702 521.040039,423.527863 517.886047,423.437225 
	C513.731445,423.317871 509.567322,423.344482 505.412689,423.477142 
	C502.447479,423.571808 500.882751,425.152924 500.975250,428.276611 
	C501.063873,431.268921 500.988983,434.265991 500.988922,437.260986 
	C500.988495,464.049469 500.984131,490.837921 500.991852,517.626404 
	C500.993866,524.556091 501.328705,524.866150 508.425781,524.879456 
	C510.256042,524.882935 512.086304,524.880249 513.916565,524.879944 
	C522.619324,524.878601 522.638000,524.864807 522.638794,516.380432 
	C522.641113,491.754974 522.639526,467.129547 522.639587,441.506409 
M435.153687,364.032349 
	C436.600769,363.504669 438.434662,363.371002 439.435272,362.388550 
	C449.707733,352.302551 454.144196,339.641754 454.626404,325.569427 
	C454.692627,323.637146 452.363892,320.310699 450.561768,319.834961 
	C436.712402,316.179047 423.218689,317.232635 410.648346,324.663208 
	C409.359894,325.424835 408.560303,327.013489 406.699005,329.198456 
	C409.660248,329.198456 411.075867,329.241730 412.488129,329.191254 
	C420.448914,328.906647 428.428131,328.132629 436.362671,328.458923 
	C441.946899,328.688538 443.381165,331.086395 442.375854,336.419373 
	C441.517273,340.974121 440.245178,345.460938 438.968506,349.924164 
	C437.658630,354.503326 436.121246,359.017426 435.153687,364.032349 
M523.872681,390.932434 
	C520.046570,383.759583 512.588074,381.143127 505.467712,384.476074 
	C499.645966,387.201172 497.106262,395.092163 499.924042,401.700409 
	C502.559601,407.881226 510.194824,410.625916 517.263306,407.933472 
	C523.211426,405.667725 525.620422,399.901062 523.872681,390.932434 
z"/>
<path fill="#15191A" opacity="1.000000" stroke="none" 
	d="
M154.132782,520.264648 
	C136.684845,522.775696 136.126740,522.304382 136.126755,505.583649 
	C136.126785,480.261810 136.117935,454.939972 136.132874,429.618134 
	C136.136856,422.838654 136.843750,422.154236 143.504883,422.127411 
	C144.504410,422.123383 145.516830,422.230896 146.501358,422.109283 
	C151.370438,421.507904 154.189911,423.340820 154.453598,428.498291 
	C154.501007,429.425507 154.982620,430.330505 155.281967,431.305023 
	C184.041626,413.664520 208.437164,416.509918 217.213501,431.967987 
	C223.968979,428.810516 230.533752,425.228668 237.466522,422.627716 
	C246.798538,419.126648 256.574432,417.972626 266.401031,420.528473 
	C277.605072,423.442596 284.708679,432.415558 284.874512,444.875092 
	C285.189301,468.526764 284.992218,492.185272 284.994293,515.840942 
	C284.994385,516.665833 285.171875,517.786133 284.725769,518.270081 
	C280.105591,523.282166 274.151306,520.336792 268.792908,520.607361 
	C265.230560,520.787231 264.976379,517.680298 264.980225,514.822632 
	C265.007751,494.498566 265.010498,474.174377 264.970276,453.850372 
	C264.966034,451.701355 264.846527,449.509033 264.415161,447.411987 
	C262.621857,438.693756 257.876617,434.807098 248.965744,435.070923 
	C239.834900,435.341278 231.184204,437.771149 223.329895,442.424133 
	C221.964905,443.232758 220.987076,445.832336 220.974228,447.612946 
	C220.816742,469.435242 220.878189,491.259033 220.869965,513.082458 
	C220.867310,520.125854 220.160538,520.824097 213.230408,520.874023 
	C198.839340,520.977783 200.831970,521.201538 200.786987,508.566559 
	C200.724121,490.908112 200.788635,473.249298 200.766006,455.590668 
	C200.744278,438.639832 194.661179,433.150726 177.924805,435.892548 
	C171.950638,436.871307 166.228867,439.435486 160.420044,441.360992 
	C157.174286,442.436920 156.106796,444.633667 156.136826,448.193939 
	C156.320892,470.015839 156.275681,491.840271 156.154968,513.663025 
	C156.143112,515.805908 155.102936,517.943176 154.132782,520.264648 
z"/>
<path fill="#15191A" opacity="1.000000" stroke="none" 
	d="
M253.127563,282.000000 
	C253.080856,274.171875 253.230087,266.835297 252.914352,259.518768 
	C252.723251,255.090073 251.563797,250.815994 246.487518,249.298569 
	C241.778809,247.891022 236.843582,250.259445 235.322983,255.145706 
	C234.352493,258.264221 233.967377,261.672211 233.934433,264.956573 
	C233.790833,279.280640 233.752502,293.608582 233.942444,307.931549 
	C234.002213,312.439850 232.505112,314.398956 227.871719,314.058655 
	C224.226624,313.790924 220.544846,313.937775 216.882111,314.021332 
	C213.901810,314.089325 212.744156,312.738342 212.750046,309.793274 
	C212.799698,284.973602 212.797256,260.153748 212.753967,235.334045 
	C212.748840,232.395432 213.932236,231.050247 216.909592,231.108307 
	C220.071426,231.169983 223.236984,231.003906 226.400940,231.002716 
	C232.431931,231.000443 232.755341,231.356873 232.878922,237.600830 
	C232.900253,238.678375 233.006195,239.754227 233.103897,241.327866 
	C243.016769,224.886505 264.194000,225.484650 272.376190,242.605637 
	C277.978424,232.288559 286.449738,227.920166 297.908569,229.968475 
	C306.791931,231.556396 313.481354,237.599915 313.987305,246.602234 
	C314.854889,262.039032 314.629639,277.538818 314.789856,293.012909 
	C314.846741,298.506195 314.577911,304.003601 314.673004,309.495422 
	C314.728485,312.701172 313.423401,314.084686 310.251526,314.020874 
	C306.255341,313.940460 302.251312,313.878510 298.259979,314.039368 
	C294.679047,314.183716 293.707550,312.469208 293.729858,309.170410 
	C293.830078,294.345856 293.790161,279.520203 293.753754,264.695007 
	C293.748047,262.371307 293.614105,260.034698 293.341156,257.727509 
	C292.668213,252.039658 290.294617,249.507614 285.466888,249.114471 
	C281.080444,248.757263 276.529358,251.788635 275.353333,256.409912 
	C274.583130,259.436523 274.300262,262.655273 274.275635,265.791718 
	C274.165833,279.783234 274.080475,293.778503 274.308929,307.767120 
	C274.386597,312.524200 272.851898,314.509949 267.986298,314.066315 
	C264.516937,313.749969 260.993530,313.924957 257.498260,314.023041 
	C254.279861,314.113342 253.061920,312.642242 253.096130,309.484467 
	C253.193558,300.490601 253.128616,291.494934 253.127563,282.000000 
z"/>
<path fill="#161A1B" opacity="1.000000" stroke="none" 
	d="
M330.008423,443.001709 
	C330.008453,458.501068 329.957703,473.501221 330.051636,488.500488 
	C330.070251,491.472168 330.373016,494.500580 331.016357,497.398132 
	C332.576416,504.424561 337.150055,508.394531 344.267212,508.919250 
	C354.786377,509.694855 364.391174,506.639252 373.136047,501.040009 
	C374.487457,500.174683 375.259430,497.459259 375.272125,495.592499 
	C375.418060,474.093719 375.357452,452.593597 375.370270,431.093811 
	C375.374481,424.039886 376.025116,423.418793 383.049408,423.363983 
	C397.453949,423.251526 395.169495,423.243408 395.207123,435.399933 
	C395.289093,461.899384 395.236908,488.399323 395.229156,514.899048 
	C395.227142,521.795654 395.028046,521.981628 388.284180,522.007874 
	C387.450867,522.011108 386.602051,521.904236 385.786713,522.025269 
	C380.696655,522.781006 377.819092,520.798157 377.444000,515.506042 
	C377.374481,514.525024 377.008423,513.565063 376.673676,512.148865 
	C374.477417,513.462585 372.416534,514.711365 370.340485,515.934448 
	C360.534973,521.711304 350.047791,524.996216 338.560486,524.893555 
	C321.117432,524.737671 310.396881,514.509094 310.191467,496.936951 
	C309.926514,474.273621 310.169556,451.604675 310.081543,428.938568 
	C310.066742,425.125092 311.642914,423.385559 315.381134,423.373108 
	C333.048920,423.314240 329.717590,422.336395 330.003540,437.002472 
	C330.039276,438.835052 330.008423,440.668915 330.008423,443.001709 
z"/>
<path fill="#161A1B" opacity="1.000000" stroke="none" 
	d="
M577.876892,283.000122 
	C577.876465,291.830353 577.754883,300.163086 577.927307,308.489777 
	C578.012146,312.583344 576.427246,314.270294 572.320374,314.053497 
	C568.332886,313.842957 564.325195,313.963043 560.327454,314.015442 
	C557.384399,314.053955 556.112061,312.658173 556.114929,309.752472 
	C556.139465,284.928345 556.147217,260.104156 556.103638,235.280090 
	C556.098389,232.282104 557.436523,231.071518 560.342285,231.107422 
	C563.838440,231.150650 567.347900,231.197281 570.830994,230.951004 
	C575.112000,230.648285 577.107117,232.282318 576.663086,236.698608 
	C576.487244,238.447983 576.634277,240.229828 577.084229,242.231842 
	C581.279785,235.180130 586.652649,230.378342 595.047852,229.480438 
	C607.437927,228.155319 617.394714,235.030319 618.996277,247.370148 
	C620.040344,255.414505 619.877563,263.634277 619.971558,271.778748 
	C620.113770,284.105865 619.894775,296.437561 620.075317,308.763672 
	C620.132202,312.644104 618.847656,314.278229 614.904785,314.052521 
	C611.251465,313.843384 607.566223,313.834229 603.914246,314.054626 
	C599.794067,314.303284 598.276428,312.604309 598.313477,308.513702 
	C598.447937,293.687073 598.399475,278.858337 598.333069,264.030792 
	C598.321228,261.383240 598.164368,258.678314 597.596924,256.105225 
	C596.800415,252.493500 594.826782,249.651505 590.803833,249.013870 
	C586.546265,248.339066 582.870789,249.881454 581.146301,253.629684 
	C579.453064,257.310028 578.386597,261.476166 578.013367,265.518555 
	C577.494751,271.135437 577.879089,276.835632 577.876892,283.000122 
z"/>
<path fill="#151A1B" opacity="1.000000" stroke="none" 
	d="
M361.936096,245.714020 
	C355.779144,245.979752 351.685760,248.468201 350.022919,254.229355 
	C349.976807,254.389130 349.964050,254.564087 349.891266,254.709717 
	C348.683807,257.125305 337.650208,257.668945 332.628967,255.450546 
	C328.614502,253.676910 330.676270,250.547241 331.523743,248.169907 
	C335.511414,236.983459 344.526367,232.207916 355.476379,230.481186 
	C363.435364,229.226120 371.394440,229.483582 379.053986,232.515198 
	C387.850891,235.996964 392.694153,242.424057 392.955597,251.891953 
	C393.235779,262.038666 393.309143,272.197571 393.167969,282.346893 
	C393.090668,287.904266 394.151001,292.921692 397.850586,297.168549 
	C400.233337,299.903809 399.927063,302.071381 396.984985,304.228638 
	C394.307648,306.191803 391.706238,308.318024 389.365112,310.665344 
	C386.343872,313.694519 383.663269,313.642059 380.909668,310.495239 
	C379.052948,308.373352 377.206940,306.242126 374.921478,303.615509 
	C373.776215,304.532776 372.518250,305.478729 371.328125,306.503448 
	C363.059692,313.622833 353.380676,315.100800 343.213257,312.629974 
	C327.433075,308.795135 322.390869,286.268982 334.151672,273.395813 
	C340.676880,266.253418 349.396515,264.346344 358.379303,263.065460 
	C362.787506,262.436890 367.224030,262.007080 371.546844,261.499146 
	C372.867035,251.001633 370.445251,246.968109 361.936096,245.714020 
M371.361633,285.548859 
	C371.603424,281.679810 371.845215,277.810791 372.194580,272.219818 
	C365.602203,274.254150 359.952301,275.137451 355.195953,277.687408 
	C349.502686,280.739716 348.322815,289.618042 351.915314,294.881897 
	C354.573639,298.776978 360.836060,300.057434 364.650452,296.516510 
	C367.505920,293.865723 369.049164,289.801422 371.361633,285.548859 
z"/>
<path fill="#151A1B" opacity="1.000000" stroke="none" 
	d="
M134.845062,302.971375 
	C127.520119,285.778717 134.936981,269.795288 152.563385,265.155151 
	C160.058624,263.182037 167.880890,262.451263 175.585480,261.150696 
	C176.925385,253.585602 175.494736,249.004303 171.062088,246.803543 
	C166.781372,244.678238 160.516388,245.694504 157.162659,249.105408 
	C156.469421,249.810471 155.872894,250.623917 155.310318,251.441437 
	C154.063889,253.252762 152.870789,256.657288 151.649796,256.660004 
	C146.388397,256.671753 141.101761,255.817780 135.895889,254.881058 
	C135.347458,254.782379 134.757278,251.953323 135.060394,250.584549 
	C136.574005,243.749725 140.366989,238.314316 146.560852,235.018768 
	C159.072418,228.361771 172.111969,227.909073 185.076935,233.352921 
	C193.001953,236.680573 196.986053,243.317993 197.139801,251.929214 
	C197.315170,261.752686 197.298752,271.582062 197.198334,281.407135 
	C197.138641,287.247070 198.094330,292.705536 202.067261,297.222839 
	C204.499466,299.988281 204.108154,302.085358 201.196243,304.234375 
	C198.388992,306.306122 195.733536,308.609222 193.178314,310.989838 
	C190.460373,313.522064 187.976791,313.635559 185.464661,310.835999 
	C183.381058,308.514038 181.310455,306.180389 179.250214,303.869995 
	C159.220200,317.168091 144.243484,316.950043 134.845062,302.971375 
M173.427383,291.694031 
	C176.518585,286.050293 176.274490,280.031982 175.814362,272.407532 
	C169.776535,274.259094 164.201172,275.233734 159.355286,277.663361 
	C154.591904,280.051575 153.261032,285.329254 154.607666,290.191864 
	C155.418549,293.119965 157.868576,296.645447 160.500137,297.788177 
	C165.243164,299.847748 169.440887,297.257812 172.477585,293.171143 
	C172.674774,292.905792 172.849625,292.623840 173.427383,291.694031 
z"/>
<path fill="#161A1B" opacity="1.000000" stroke="none" 
	d="
M453.373199,524.533691 
	C440.643097,525.601013 428.659119,524.280701 417.115112,519.806458 
	C412.625000,518.066223 409.638184,509.324188 412.562653,505.605560 
	C413.356628,504.595978 416.080688,504.671814 417.826294,504.914795 
	C427.666931,506.284546 437.443970,508.227783 447.319489,509.171753 
	C451.085358,509.531708 455.260559,508.273987 458.881012,506.830231 
	C463.618042,504.941284 465.766815,500.682861 465.936096,495.649261 
	C466.097839,490.839691 463.815735,487.176422 459.469482,485.295013 
	C451.999695,482.061462 444.363831,479.213409 436.823303,476.140656 
	C433.747253,474.887207 430.621338,473.682220 427.719452,472.088562 
	C417.568634,466.514160 412.542145,457.873444 413.161011,446.255981 
	C413.766052,434.898041 420.055084,427.301117 430.160614,423.036591 
	C445.323151,416.637939 460.496521,418.824188 475.415527,424.241760 
	C478.876526,425.498535 480.695465,435.749634 477.860199,437.870758 
	C476.716339,438.726562 474.473785,438.401489 472.783936,438.190979 
	C464.565002,437.167114 456.385010,435.772522 448.144989,435.007751 
	C445.281372,434.741943 442.185730,435.598236 439.371490,436.493469 
	C434.877716,437.923035 432.192047,441.089203 431.765381,445.985779 
	C431.350769,450.743530 432.750580,454.743958 437.142792,456.869629 
	C443.114746,459.759918 449.290253,462.234009 455.406067,464.821350 
	C459.538239,466.569519 463.781494,468.065399 467.864380,469.918030 
	C478.957031,474.951172 484.919067,483.161926 484.292419,495.832123 
	C483.678070,508.253845 477.284088,516.366272 466.271088,521.056824 
	C462.348694,522.727417 457.981659,523.354004 453.373199,524.533691 
z"/>
<path fill="#151A1B" opacity="1.000000" stroke="none" 
	d="
M526.104370,233.801239 
	C541.493469,244.468323 544.388733,259.986694 543.567383,276.716522 
	C543.041321,287.431152 539.528198,297.251648 531.643616,305.011139 
	C517.165344,319.259766 492.737335,316.623016 482.664948,299.027496 
	C472.510803,281.289215 472.621338,262.626434 482.295776,244.746964 
	C490.575867,229.444473 508.948761,225.222763 526.104370,233.801239 
M501.819489,249.447861 
	C496.317139,259.571045 497.870819,270.489319 498.540466,281.212982 
	C498.783295,285.101807 499.863617,289.180359 501.565277,292.685120 
	C504.981079,299.720276 513.416016,299.872009 517.612427,293.243835 
	C518.577209,291.719971 519.451721,289.987732 519.785706,288.240173 
	C521.995789,276.676605 522.299988,265.046539 519.300171,253.609406 
	C516.899841,244.458038 509.356262,242.515472 501.819489,249.447861 
z"/>
<path fill="#161B1C" opacity="1.000000" stroke="none" 
	d="
M350.803223,353.993042 
	C376.250061,351.667023 400.510773,346.258270 423.896881,337.087250 
	C424.979004,336.662903 426.111511,335.868469 427.158173,335.959930 
	C429.118408,336.131226 431.032959,336.825867 432.966492,337.302826 
	C432.291504,339.130524 432.159027,341.767792 430.847992,342.646362 
	C425.059967,346.525116 419.227966,350.572144 412.883026,353.350281 
	C338.420013,385.953552 268.516418,378.805267 203.696991,328.806183 
	C202.777390,328.096832 201.672302,327.415710 201.157623,326.452240 
	C200.622711,325.450958 200.341385,324.007660 200.667252,322.986877 
	C200.822037,322.502014 202.715866,322.225891 203.696030,322.437653 
	C204.952118,322.709015 206.091385,323.548615 207.263916,324.175323 
	C240.474030,341.925659 275.904541,351.963165 313.469543,354.028259 
	C325.721375,354.701782 338.046021,354.050873 350.803223,353.993042 
z"/>
<path fill="#161A1B" opacity="1.000000" stroke="none" 
	d="
M595.047119,508.360138 
	C601.921265,507.409363 608.354858,506.653442 614.697510,505.427399 
	C618.396118,504.712463 619.941772,505.561157 620.059387,509.492218 
	C620.343018,518.964783 619.852356,520.006409 610.918823,522.502319 
	C598.956726,525.844299 586.861816,525.968018 574.914978,522.609802 
	C560.313477,518.505371 550.761841,508.871613 546.414062,494.419098 
	C542.350159,480.910187 542.121521,467.124481 545.666260,453.487885 
	C551.529175,430.932739 569.295898,418.402618 594.394165,419.408997 
	C601.275269,419.684937 608.158203,421.466125 614.897949,423.132446 
	C618.875244,424.115784 621.325623,434.768707 618.382935,437.662262 
	C617.509888,438.520782 615.374207,438.383087 613.856750,438.249908 
	C606.268982,437.583893 598.669922,435.952759 591.120361,436.178802 
	C576.699829,436.610657 568.152588,444.157013 565.999329,458.441040 
	C564.797241,466.415344 564.478943,474.755188 565.340881,482.760345 
	C567.186340,499.899811 575.943115,507.104309 595.047119,508.360138 
z"/>
<path fill="#151A1B" opacity="1.000000" stroke="none" 
	d="
M465.982300,237.336426 
	C466.967255,244.655045 464.551788,250.245621 460.424255,255.724014 
	C452.446930,266.312164 445.028076,277.321045 437.702332,287.695831 
	C445.460144,289.450104 452.990112,291.069397 460.475677,292.872894 
	C466.104523,294.229004 468.266632,298.051422 467.654694,303.677704 
	C467.511353,304.995361 467.649963,306.342072 467.629913,307.675018 
	C467.534363,314.021454 466.422394,314.688873 460.650818,312.272614 
	C445.137665,305.778046 429.623871,305.685211 414.155609,312.486389 
	C408.681732,314.893188 408.222168,314.313171 407.681671,308.349976 
	C406.839142,299.054810 409.392853,291.329437 415.232513,283.911469 
	C423.340607,273.611969 430.463562,262.536957 438.823059,250.633743 
	C434.941101,250.633743 432.083710,250.634811 429.226318,250.633530 
	C424.560089,250.631439 419.893860,250.625626 415.227631,250.625671 
	C412.329071,250.625702 410.627655,249.574051 410.334503,246.316406 
	C409.243530,234.191971 409.559814,233.767990 421.758911,233.768204 
	C434.757751,233.768433 447.756561,233.764023 460.755402,233.774033 
	C463.089569,233.775818 465.647980,233.461731 465.982300,237.336426 
z"/>
<path fill="#161B1C" opacity="1.000000" stroke="none" 
	d="
M522.639526,442.005249 
	C522.639526,467.129547 522.641113,491.754974 522.638794,516.380432 
	C522.638000,524.864807 522.619324,524.878601 513.916565,524.879944 
	C512.086304,524.880249 510.256042,524.882935 508.425781,524.879456 
	C501.328705,524.866150 500.993866,524.556091 500.991852,517.626404 
	C500.984131,490.837921 500.988495,464.049469 500.988922,437.260986 
	C500.988983,434.265991 501.063873,431.268921 500.975250,428.276611 
	C500.882751,425.152924 502.447479,423.571808 505.412689,423.477142 
	C509.567322,423.344482 513.731445,423.317871 517.886047,423.437225 
	C521.040039,423.527863 522.715759,425.194702 522.650146,428.528625 
	C522.565125,432.852966 522.635864,437.180328 522.639526,442.005249 
z"/>
<path fill="#171C1D" opacity="1.000000" stroke="none" 
	d="
M434.918579,363.796173 
	C436.121246,359.017426 437.658630,354.503326 438.968506,349.924164 
	C440.245178,345.460938 441.517273,340.974121 442.375854,336.419373 
	C443.381165,331.086395 441.946899,328.688538 436.362671,328.458923 
	C428.428131,328.132629 420.448914,328.906647 412.488129,329.191254 
	C411.075867,329.241730 409.660248,329.198456 406.699005,329.198456 
	C408.560303,327.013489 409.359894,325.424835 410.648346,324.663208 
	C423.218689,317.232635 436.712402,316.179047 450.561768,319.834961 
	C452.363892,320.310699 454.692627,323.637146 454.626404,325.569427 
	C454.144196,339.641754 449.707733,352.302551 439.435272,362.388550 
	C438.434662,363.371002 436.600769,363.504669 434.918579,363.796173 
z"/>
<path fill="#161B1C" opacity="1.000000" stroke="none" 
	d="
M523.960205,391.312622 
	C525.620422,399.901062 523.211426,405.667725 517.263306,407.933472 
	C510.194824,410.625916 502.559601,407.881226 499.924042,401.700409 
	C497.106262,395.092163 499.645966,387.201172 505.467712,384.476074 
	C512.588074,381.143127 520.046570,383.759583 523.960205,391.312622 
z"/>
<path fill="#46C1CD" opacity="1.000000" stroke="none" 
	d="
M371.269165,285.957703 
	C369.049164,289.801422 367.505920,293.865723 364.650452,296.516510 
	C360.836060,300.057434 354.573639,298.776978 351.915314,294.881897 
	C348.322815,289.618042 349.502686,280.739716 355.195953,277.687408 
	C359.952301,275.137451 365.602203,274.254150 372.194580,272.219818 
	C371.845215,277.810791 371.603424,281.679810 371.269165,285.957703 
z"/>
<path fill="#46C0CD" opacity="1.000000" stroke="none" 
	d="
M173.231110,292.021820 
	C172.849625,292.623840 172.674774,292.905792 172.477585,293.171143 
	C169.440887,297.257812 165.243164,299.847748 160.500137,297.788177 
	C157.868576,296.645447 155.418549,293.119965 154.607666,290.191864 
	C153.261032,285.329254 154.591904,280.051575 159.355286,277.663361 
	C164.201172,275.233734 169.776535,274.259094 175.814362,272.407532 
	C176.274490,280.031982 176.518585,286.050293 173.231110,292.021820 
z"/>
<path fill="#46C1CE" opacity="1.000000" stroke="none" 
	d="
M502.025024,249.127106 
	C509.356262,242.515472 516.899841,244.458038 519.300171,253.609406 
	C522.299988,265.046539 521.995789,276.676605 519.785706,288.240173 
	C519.451721,289.987732 518.577209,291.719971 517.612427,293.243835 
	C513.416016,299.872009 504.981079,299.720276 501.565277,292.685120 
	C499.863617,289.180359 498.783295,285.101807 498.540466,281.212982 
	C497.870819,270.489319 496.317139,259.571045 502.025024,249.127106 
z"/>
</svg>