<?xml version="1.0" standalone="no"?>
<!DOCTYPE svg PUBLIC "-//W3C//DTD SVG 20010904//EN"
 "http://www.w3.org/TR/2001/REC-SVG-20010904/DTD/svg10.dtd">
<svg version="1.0" xmlns="http://www.w3.org/2000/svg"
 width="1800.000000pt" height="1165.000000pt" viewBox="0 0 1800.000000 1165.000000"
 preserveAspectRatio="xMidYMid meet">

<g transform="translate(0.000000,1165.000000) scale(0.100000,-0.100000)"
fill="#ffffff" stroke="none">
<path d="M570 11640 c0 -5 4 -10 10 -10 5 0 31 -43 57 -95 26 -52 54 -106 61
-120 8 -15 11 -29 8 -32 -3 -3 -11 7 -18 23 -10 25 -12 26 -15 9 -2 -11 17
-56 42 -100 48 -84 70 -146 62 -176 -3 -9 -1 -38 4 -64 15 -79 38 -306 40
-385 4 -220 -38 -490 -77 -490 -20 0 -44 -41 -38 -66 3 -12 1 -25 -5 -28 -6
-4 -11 -24 -11 -45 0 -43 -41 -108 -136 -218 -20 -24 -41 -43 -48 -43 -6 0
-35 -16 -63 -35 -29 -19 -57 -35 -63 -35 -5 0 -10 -4 -10 -10 0 -5 -6 -10 -14
-10 -8 0 -16 -5 -18 -11 -4 -13 -120 -37 -223 -46 -94 -8 -115 -27 -115 -104
l0 -56 42 -11 c24 -6 70 -14 103 -18 33 -3 65 -9 70 -14 6 -4 26 -11 45 -15
19 -4 45 -13 57 -21 18 -11 23 -12 23 -2 0 8 5 6 11 -4 5 -10 18 -18 28 -18 9
0 26 -7 37 -15 10 -8 29 -15 41 -15 13 0 37 -9 55 -20 18 -11 56 -25 86 -31
40 -10 55 -18 65 -38 8 -18 52 -46 148 -96 182 -93 289 -179 289 -232 0 -10 9
-29 20 -43 16 -21 20 -22 20 -7 0 10 5 15 11 12 6 -4 8 -14 4 -23 -3 -8 -2
-18 3 -21 16 -12 57 -77 69 -111 7 -19 13 -57 13 -85 0 -32 7 -62 20 -83 13
-21 28 -79 40 -155 10 -67 26 -151 34 -187 18 -74 20 -137 6 -196 -5 -23 -14
-122 -20 -220 -5 -99 -13 -214 -16 -256 -8 -96 10 -108 22 -15 6 52 9 57 14
32 l7 -30 8 30 c4 17 12 35 17 42 5 6 10 49 11 96 2 63 5 83 15 80 6 -3 12 2
12 12 0 9 -4 13 -10 10 -11 -7 -14 8 -4 18 3 3 8 30 10 59 11 152 61 470 80
507 8 14 16 51 20 83 6 52 9 57 33 60 27 3 28 4 30 108 1 26 7 38 24 45 16 7
21 17 19 37 -2 14 9 70 24 125 15 54 28 109 30 123 1 14 5 38 9 54 4 19 1 32
-7 37 -9 6 -8 9 7 9 15 0 16 3 7 12 -17 17 -15 50 8 99 11 24 20 55 20 68 0
22 55 223 81 296 6 17 13 41 15 55 1 14 6 37 10 53 5 21 3 27 -10 27 -10 0
-19 -11 -23 -30 -3 -17 -10 -33 -14 -36 -5 -3 -9 -13 -9 -24 0 -23 -95 -120
-117 -120 -5 0 -16 -11 -23 -25 -14 -26 -66 -55 -99 -55 -12 0 -21 -6 -21 -15
0 -15 -67 -38 -83 -28 -5 3 -13 -1 -18 -8 -6 -9 -12 -10 -16 -4 -5 6 -28 11
-53 11 -46 0 -121 30 -175 69 -16 12 -39 25 -51 29 -19 6 -21 15 -22 84 -1 43
-6 99 -11 125 -11 63 0 117 32 149 15 15 27 34 27 43 0 8 27 42 60 76 33 33
60 64 60 69 0 5 18 18 40 28 22 10 37 22 33 27 -5 4 4 5 18 2 18 -5 31 -2 39
8 8 9 30 15 55 15 25 0 45 5 48 13 4 9 8 9 15 -2 9 -12 13 -12 26 -2 27 23
187 -10 224 -46 16 -15 102 -18 102 -3 0 17 26 11 45 -10 20 -22 37 -18 28 8
-6 15 -4 15 10 4 9 -8 23 -36 32 -63 10 -28 20 -48 23 -45 28 29 57 -294 43
-479 -12 -158 -19 -185 -88 -349 -29 -71 -51 -131 -48 -134 2 -3 14 16 26 42
11 26 23 45 26 42 5 -5 -54 -186 -64 -196 -3 -3 -2 20 2 50 5 39 4 52 -4 45
-5 -6 -13 -36 -17 -68 -6 -49 -5 -57 8 -52 14 5 14 -2 2 -67 -7 -40 -18 -91
-24 -113 -14 -59 -13 -138 3 -133 6 3 13 20 15 39 3 49 35 169 44 169 4 0 5 6
2 14 -5 12 59 235 85 301 5 11 14 33 20 48 6 15 11 36 11 45 0 9 7 26 16 37
13 17 16 18 24 5 8 -13 10 -13 10 2 0 9 9 32 19 50 10 18 22 50 25 71 4 20 11
37 15 37 8 0 22 36 27 70 5 34 98 281 126 333 19 37 18 8 -2 -42 -23 -58 -24
-71 -10 -71 6 0 10 4 10 10 0 14 82 223 92 235 5 5 8 4 8 -4 0 -11 3 -11 15
-1 8 7 15 19 15 27 0 8 7 22 16 30 9 9 14 26 11 40 -3 16 0 22 10 21 16 -3 21
5 107 180 36 74 76 146 88 162 13 15 40 57 62 92 55 90 109 171 124 187 8 8
18 25 23 39 5 13 33 60 62 103 45 70 52 77 55 54 2 -14 -10 -54 -27 -90 -17
-36 -31 -71 -31 -79 0 -33 -121 -378 -159 -454 -23 -45 -50 -105 -61 -132 -21
-54 -130 -280 -178 -370 -17 -30 -49 -95 -72 -145 -61 -132 -149 -305 -176
-345 -13 -19 -39 -57 -59 -85 -19 -27 -35 -56 -35 -63 0 -7 -15 -34 -32 -60
-37 -53 -47 -70 -77 -128 -12 -22 -39 -55 -61 -73 -39 -31 -52 -65 -27 -74 9
-3 9 -9 1 -28 -13 -25 -35 -83 -38 -95 0 -4 9 -8 22 -9 13 -1 22 4 22 12 0 7
6 16 14 19 8 3 26 29 40 57 25 52 69 107 85 107 5 0 16 -19 25 -41 23 -56 23
-159 1 -330 -3 -20 1 -57 9 -82 12 -39 12 -63 0 -159 -8 -62 -15 -138 -17
-168 -11 -182 -31 -348 -47 -377 -9 -18 -20 -30 -23 -27 -3 4 -9 -5 -12 -19
-4 -16 -16 -28 -33 -32 -14 -3 -62 -38 -106 -77 -45 -38 -88 -73 -96 -76 -23
-8 -150 -105 -150 -114 0 -4 -6 -8 -14 -8 -7 0 -19 -6 -25 -14 -6 -7 -32 -21
-58 -31 -26 -10 -58 -31 -71 -47 -14 -16 -41 -38 -62 -48 -21 -11 -45 -26 -53
-34 -8 -8 -28 -23 -45 -33 -16 -10 -55 -33 -86 -51 -31 -19 -62 -39 -69 -45
-17 -17 -124 -87 -132 -87 -3 0 -21 -11 -39 -25 -18 -14 -37 -25 -42 -25 -5 0
-20 -9 -34 -20 -14 -11 -31 -20 -39 -20 -7 0 -35 -18 -62 -39 -28 -22 -63 -42
-78 -46 -22 -5 -30 -13 -33 -36 -6 -36 10 -38 49 -6 35 29 127 87 137 87 5 0
20 8 34 18 15 11 42 24 60 30 29 10 96 50 248 150 19 12 41 22 49 22 7 0 20 6
27 13 7 7 40 26 73 41 33 16 64 31 69 34 4 2 5 -5 1 -17 -9 -28 -2 -27 38 8
22 20 61 37 113 52 43 12 87 25 96 30 25 13 131 12 123 -1 -9 -15 16 -12 49 5
36 19 42 19 26 0 -10 -12 -9 -15 7 -15 10 0 24 -5 31 -12 9 -9 12 -8 12 5 0
23 33 17 63 -11 17 -16 28 -43 37 -91 13 -71 11 -102 -26 -446 -12 -108 -13
-168 -6 -265 9 -124 7 -365 -4 -470 -15 -144 -78 -315 -133 -360 -57 -48 -60
-50 -72 -50 -6 0 -9 -6 -6 -14 6 -16 -20 -26 -72 -26 -33 0 -33 1 -28 35 3 20
2 35 -4 35 -6 0 -7 6 -2 13 4 6 9 39 10 72 1 33 11 92 23 130 12 39 25 86 29
105 5 19 23 73 40 120 45 118 51 140 50 175 l0 30 -12 -25 c-6 -14 -26 -56
-44 -94 -18 -37 -30 -73 -27 -78 4 -6 3 -13 -2 -17 -13 -9 -30 -38 -64 -106
-33 -68 -48 -90 -72 -116 -18 -19 -49 -82 -103 -209 -37 -87 -58 -126 -101
-183 -17 -23 -40 -60 -52 -83 -26 -50 -32 -55 -111 -84 -62 -23 -67 -23 -192
-11 -136 12 -188 28 -230 67 -14 14 -43 28 -65 31 -21 3 -52 16 -68 27 -55 39
-169 161 -186 198 -9 21 -19 36 -22 33 -3 -3 -20 15 -39 40 -19 25 -49 65 -66
88 -18 23 -33 49 -33 58 0 9 -6 19 -13 22 -15 6 -61 77 -50 77 4 0 20 -12 35
-27 15 -15 28 -22 28 -17 0 10 -117 145 -197 229 -21 22 -41 46 -44 54 -5 12
-6 12 -11 -1 -4 -9 16 -48 50 -99 80 -121 153 -241 149 -246 -3 -2 -24 19 -48
47 -23 27 -46 50 -51 50 -12 0 54 -87 118 -155 83 -88 127 -160 133 -217 1 -3
11 -19 24 -35 13 -15 31 -48 41 -73 20 -50 23 -57 78 -152 21 -37 38 -73 38
-80 0 -14 50 -93 74 -118 8 -8 24 -38 35 -65 11 -28 20 -44 20 -37 1 22 19 13
25 -14 4 -14 18 -38 32 -52 13 -15 36 -52 51 -82 23 -48 29 -76 33 -140 0 -13
1 -13 10 0 8 12 10 11 10 -7 0 -13 5 -23 11 -23 5 0 7 -5 3 -11 -3 -6 1 -25 9
-42 8 -18 20 -54 25 -82 6 -27 18 -81 27 -120 61 -256 63 -267 41 -259 -12 5
-12 -2 1 -43 27 -85 53 -187 53 -208 0 -34 93 -308 116 -342 12 -18 50 -90 85
-160 34 -71 67 -131 72 -135 6 -3 12 -13 13 -22 1 -8 12 -29 23 -45 12 -16 21
-36 21 -45 0 -9 5 -16 10 -16 6 0 10 -6 10 -14 0 -8 4 -16 8 -18 5 -1 29 -34
53 -73 23 -38 48 -73 54 -77 5 -4 6 -8 1 -8 -6 0 -1 -7 10 -15 10 -8 15 -15
10 -15 -6 0 -1 -7 10 -15 14 -11 16 -15 4 -15 -11 -1 -10 -5 5 -18 12 -9 29
-30 38 -47 20 -36 77 -206 77 -230 0 -11 5 -15 14 -12 8 3 17 -2 20 -11 3 -9
13 -37 21 -62 9 -25 18 -92 20 -150 3 -58 7 -136 10 -175 12 -144 12 -213 0
-335 -7 -73 -8 -130 -3 -137 11 -13 1 -73 -19 -120 -7 -18 -10 -33 -7 -33 4 0
2 -6 -4 -13 -6 -7 -14 -44 -18 -82 -4 -42 -15 -84 -26 -103 -11 -18 -18 -35
-15 -38 3 -3 -12 -41 -34 -84 -21 -44 -39 -82 -39 -85 0 -4 -28 -64 -63 -133
-98 -198 -228 -387 -369 -539 -52 -56 -72 -93 -50 -93 5 0 30 20 55 45 26 25
51 45 56 45 5 0 28 32 51 71 24 38 46 66 49 60 7 -10 74 51 112 102 11 15 24
25 29 22 9 -5 50 41 50 56 0 5 14 28 30 51 17 22 30 47 30 55 0 7 6 12 12 11
7 -2 14 7 16 20 2 12 12 28 23 35 10 6 19 18 19 26 0 8 10 28 23 45 27 35 59
93 127 221 77 147 111 209 121 221 23 28 80 160 122 284 56 163 72 229 86 340
6 47 16 117 21 155 24 159 24 155 5 155 -15 0 -17 7 -13 45 3 26 1 45 -4 45
-5 0 -7 13 -3 30 5 21 3 32 -8 35 -27 11 -40 154 -33 385 7 273 11 309 40 395
13 38 27 86 31 105 4 19 13 42 20 50 15 18 60 129 61 151 2 22 34 68 34 49 0
-10 7 -6 20 10 11 14 17 31 15 39 -8 20 73 152 96 158 10 3 16 9 13 14 -5 9
67 126 117 190 16 20 29 43 29 51 0 7 9 19 20 26 22 13 27 32 8 32 -13 0 -88
-79 -88 -93 0 -24 -84 -126 -121 -145 -43 -23 -133 -30 -144 -12 -10 15 -35
12 -35 -5 0 -9 -9 -15 -22 -15 -25 0 -93 22 -104 33 -4 4 -20 7 -35 7 -15 0
-29 7 -33 15 -6 18 -33 20 -38 3 -6 -16 -68 28 -68 47 0 8 -16 18 -36 24 -39
11 -184 134 -184 156 0 8 -9 17 -20 20 -12 4 -20 14 -19 23 2 9 -7 35 -19 57
-11 22 -21 36 -22 30 -1 -14 -29 37 -30 54 0 8 3 11 7 8 13 -13 33 16 32 47
-1 21 -3 25 -6 11 -7 -26 -25 -37 -35 -22 -13 20 -9 110 7 140 19 37 31 147
16 147 -6 0 -11 7 -11 15 0 8 6 12 13 9 9 -3 18 9 25 35 9 28 23 45 48 60 20
12 34 25 31 28 -4 3 -13 0 -22 -7 -30 -25 -26 -1 4 26 17 15 31 36 31 46 0 10
7 18 15 18 8 0 15 6 15 14 0 29 25 36 84 25 71 -13 146 -61 204 -132 57 -69
164 -222 190 -272 24 -46 52 -268 52 -407 0 -99 5 -118 31 -118 21 0 24 16 9
56 -6 15 -7 31 -2 36 11 11 2 272 -13 350 -4 20 -4 45 0 55 5 10 9 20 10 23 0
3 6 21 12 40 6 19 12 61 11 92 0 32 4 62 7 69 4 6 8 28 9 49 1 21 10 49 19 64
19 29 22 40 7 31 -14 -9 -13 -5 20 76 16 41 37 79 45 85 8 6 15 19 15 29 0 24
74 167 102 198 33 36 41 48 61 90 12 26 22 37 32 33 25 -9 81 22 113 62 26 32
29 43 23 72 -6 28 -12 35 -29 33 -14 -2 -22 3 -22 12 0 10 -10 15 -28 15 -22
0 -50 21 -125 93 l-96 92 -12 125 c-6 69 -14 147 -16 173 -4 34 -1 53 10 65
25 29 30 261 7 369 -10 52 -21 158 -24 258 -4 94 -9 182 -12 196 -3 16 1 31
11 39 16 13 20 101 6 150 -6 20 0 31 29 59 51 49 76 58 165 60 44 1 97 6 118
12 31 8 42 7 55 -5 10 -8 29 -18 45 -21 15 -4 27 -12 27 -17 0 -6 15 -36 34
-67 18 -31 39 -73 46 -93 6 -21 15 -38 18 -38 7 0 18 -23 47 -104 11 -30 20
-44 25 -36 5 8 10 9 14 2 3 -6 2 -13 -3 -17 -12 -7 -3 -34 20 -58 22 -24 82
-243 75 -272 -3 -13 2 -40 11 -61 10 -24 17 -75 19 -134 2 -52 6 -108 10 -125
3 -16 7 -237 9 -490 4 -558 3 -523 14 -506 15 23 22 -4 27 -97 2 -48 6 -109 9
-135 4 -44 3 -48 -12 -35 -15 12 -16 8 -9 -47 22 -197 102 -565 162 -750 17
-55 42 -136 54 -180 40 -148 97 -319 119 -355 5 -8 20 -48 32 -88 13 -40 25
-68 27 -62 6 16 22 12 22 -6 0 -8 11 -30 24 -47 28 -37 43 -64 139 -242 68
-128 117 -196 117 -164 0 8 -13 36 -30 62 -34 54 -70 130 -70 149 0 18 -62
141 -78 153 -7 6 -14 30 -15 55 -2 47 -54 200 -67 200 -5 0 -6 9 -3 20 3 11 1
20 -5 20 -9 0 -20 22 -28 55 -1 6 -12 37 -23 69 -12 33 -18 68 -15 79 3 10 -2
48 -12 84 -14 52 -15 66 -4 73 10 6 8 10 -7 18 -27 15 -64 181 -62 282 0 30
-1 80 -3 110 -2 30 -2 195 -2 365 1 246 5 324 17 375 9 36 13 75 11 87 -7 25
14 133 25 133 4 0 13 28 20 63 7 34 19 85 27 114 8 28 14 61 14 72 0 12 5 21
10 21 17 0 32 50 46 160 7 58 18 128 23 155 11 56 -7 465 -21 465 -4 0 -5 -7
-2 -15 4 -8 1 -15 -5 -15 -8 0 -11 16 -10 43 1 25 -5 56 -16 77 -11 19 -18 43
-16 52 1 10 -3 26 -9 38 -6 11 -12 40 -14 65 -2 25 -9 52 -16 60 -6 8 -9 18
-6 24 3 5 -7 66 -24 136 -16 69 -30 137 -30 151 0 13 -4 32 -9 42 -5 9 -17 52
-26 94 -16 76 -16 78 6 137 12 34 26 61 30 61 5 0 9 21 9 46 0 29 7 56 19 72
10 15 31 51 45 81 15 29 35 55 45 58 9 2 27 25 39 51 12 26 43 76 70 112 69
94 88 160 45 160 -11 0 -14 -6 -9 -24 3 -14 2 -28 -4 -31 -5 -3 -10 -1 -10 5
0 7 -8 9 -21 5 -13 -5 -25 -2 -30 6 -6 10 -25 -3 -73 -49 -35 -34 -69 -62 -74
-62 -17 0 -81 -44 -82 -55 -1 -24 -83 -75 -120 -75 -21 0 -29 -20 -7 -20 6 -1
-1 -7 -18 -14 -16 -7 -39 -10 -50 -6 -28 9 -115 -14 -115 -31 0 -5 -20 -9 -45
-9 -51 0 -88 27 -79 57 12 36 30 68 52 94 12 14 29 34 37 45 13 16 16 17 25 4
7 -11 9 -6 6 20 -2 19 -9 34 -15 33 -17 -4 -13 11 7 33 10 11 17 25 14 32 -2
6 3 12 10 12 8 0 22 15 30 34 9 18 37 65 62 105 25 39 46 75 46 79 0 4 9 18
20 32 11 14 20 31 20 37 0 18 62 111 104 158 20 22 36 45 36 50 0 6 18 31 41
55 22 25 53 73 69 107 15 33 37 66 49 72 12 7 21 17 21 24 0 7 9 27 21 46 15
25 23 31 29 21 5 -9 12 -5 21 16 19 38 43 46 29 8 -8 -20 -8 -29 1 -35 18 -11
14 -107 -6 -140 -4 -6 -2 -15 5 -19 18 -11 16 -51 -8 -168 -23 -108 -28 -187
-13 -196 5 -3 9 13 9 35 1 50 12 66 12 18 0 -26 3 -30 10 -19 5 8 10 30 10 48
0 17 4 32 9 32 4 0 7 12 4 28 -3 23 -2 24 6 7 8 -18 9 -17 16 10 14 62 27 95
36 95 5 0 9 10 9 23 0 12 8 36 18 52 10 17 30 71 45 120 25 81 42 127 83 220
7 16 10 33 7 38 -3 4 4 11 16 14 12 3 21 13 21 25 0 11 20 60 46 110 25 50 43
97 40 104 -5 13 127 282 184 379 25 41 50 71 50 60 0 -3 24 40 52 96 35 67 60
104 75 110 22 8 27 19 24 47 -2 11 25 47 115 151 49 57 80 112 105 186 14 41
37 83 57 104 27 28 32 40 27 63 -8 33 22 89 67 127 21 18 26 29 22 47 -4 15
-2 24 5 24 6 0 11 8 11 18 0 25 30 61 36 45 6 -14 34 -18 34 -4 0 4 -11 20
-25 35 l-24 26 -26 -24 c-14 -13 -25 -26 -25 -30 0 -4 -15 -22 -33 -39 -18
-18 -51 -57 -74 -87 -23 -30 -64 -78 -91 -107 -28 -28 -63 -70 -78 -92 -148
-206 -438 -531 -502 -560 -15 -8 -34 -17 -42 -21 -9 -4 -39 -11 -67 -15 -48
-6 -52 -5 -70 22 -29 42 -41 79 -58 176 -8 49 -17 93 -21 98 -3 5 -6 105 -8
222 -2 150 -6 219 -15 236 -8 14 -15 69 -16 135 -2 61 -6 150 -10 199 -4 58
-3 87 4 87 6 0 11 7 11 15 0 8 -4 15 -8 15 -5 0 -15 12 -23 27 -13 25 -14 20
-20 -73 -5 -91 -28 -262 -45 -342 -4 -18 -19 -45 -35 -59 -15 -15 -26 -30 -24
-33 2 -3 -5 -46 -16 -96 -11 -49 -24 -118 -30 -154 -24 -143 -28 -167 -39
-215 -6 -27 -12 -59 -14 -70 -6 -37 -93 -322 -107 -347 -5 -10 -9 -23 -9 -30
0 -20 -122 -321 -137 -339 -12 -14 -12 -18 -1 -21 11 -4 10 -8 -1 -22 -8 -9
-20 -15 -27 -12 -7 3 -20 -6 -28 -20 -9 -13 -24 -24 -34 -24 -15 0 -15 -2 -2
-10 12 -7 12 -13 4 -27 -6 -10 -18 -19 -26 -21 -12 -2 -14 4 -10 24 5 30 -14
30 -32 1 -8 -13 -8 -20 3 -26 18 -11 5 -32 -15 -24 -9 3 -20 0 -24 -7 -4 -7
-28 -14 -53 -17 -45 -5 -46 -5 -61 31 -8 20 -20 36 -25 36 -14 0 -14 -27 -1
-35 15 -9 12 -25 -5 -25 -8 0 -15 8 -15 17 0 9 -14 32 -32 50 -19 20 -26 33
-18 33 11 0 10 4 -4 18 -14 13 -20 14 -23 4 -4 -10 -9 -9 -24 4 -10 9 -19 21
-19 26 0 5 -26 56 -57 112 -114 202 -131 226 -154 226 -10 0 -19 5 -19 10 0 6
-4 10 -10 10 -15 0 -12 -30 4 -36 8 -3 22 -24 31 -47 9 -23 28 -56 41 -74 59
-78 89 -196 100 -396 5 -102 10 -133 25 -151 16 -21 18 -31 9 -76 -6 -29 -10
-80 -10 -114 0 -34 -5 -67 -11 -73 -9 -9 -17 -43 -18 -85 -1 -11 -6 -15 -16
-12 -10 4 -15 0 -15 -14 0 -49 -58 -202 -77 -202 -7 0 -17 -9 -23 -19 -14 -28
-12 -36 5 -21 12 10 15 10 15 -3 0 -8 -22 -39 -48 -69 -27 -29 -52 -61 -55
-71 -4 -11 -16 -21 -27 -24 -11 -3 -20 -14 -20 -25 0 -10 -4 -17 -8 -14 -4 3
-21 -11 -37 -30 -16 -19 -34 -34 -41 -34 -7 0 -15 -6 -18 -12 -5 -12 -2 129 8
322 2 41 9 97 15 124 8 32 8 53 2 59 -6 6 -12 -4 -16 -29 -12 -73 -24 -82 -19
-14 9 142 14 187 25 230 6 25 13 96 14 158 2 62 6 138 10 170 9 64 10 77 14
147 2 40 4 45 11 25 4 -16 7 1 7 50 -1 43 5 85 12 99 8 14 11 40 8 62 -6 48 1
79 19 79 16 0 21 20 28 125 8 108 50 314 60 290 14 -37 27 3 31 96 5 109 22
192 38 182 7 -4 8 0 4 11 -4 9 0 33 8 52 8 19 11 34 7 34 -3 0 -1 5 6 12 7 7
12 22 12 35 0 21 28 118 49 168 12 29 38 115 46 150 3 17 27 77 51 135 25 58
49 114 54 125 4 11 16 58 25 103 13 61 14 87 6 95 -8 8 -16 0 -28 -31 -11 -30
-19 -39 -25 -30 -19 30 -6 62 53 131 34 40 64 79 67 87 3 8 21 29 39 46 18 17
33 37 33 46 0 8 9 27 20 41 31 40 21 52 -16 20 -46 -42 -142 -120 -177 -147
-49 -36 -131 -116 -120 -116 4 -1 -5 -7 -22 -14 -16 -8 -43 -27 -60 -42 -44
-43 -122 -104 -132 -104 -5 0 -37 -21 -72 -47 -35 -27 -87 -61 -115 -78 -28
-16 -80 -49 -116 -72 -74 -49 -225 -124 -294 -147 -38 -13 -119 -16 -150 -7
-17 6 -60 17 -96 26 -111 28 -152 43 -255 94 -55 27 -132 64 -172 82 -40 18
-74 38 -77 46 -3 7 -13 13 -22 13 -9 0 -50 27 -91 60 -41 33 -81 60 -89 60
-20 0 -112 87 -131 125 -9 16 -30 48 -47 70 -18 22 -38 56 -46 75 -24 61 -82
174 -106 206 -13 17 -24 34 -24 37 0 4 -10 18 -22 33 -34 38 -95 158 -115 225
l-17 59 -43 0 c-24 0 -43 -4 -43 -10z"/>
<path d="M10590 11397 c-170 -88 -258 -137 -270 -152 -7 -8 -16 -12 -21 -9 -9
5 -125 -69 -178 -115 -19 -16 -62 -46 -96 -66 -34 -19 -79 -53 -100 -75 -22
-22 -44 -40 -51 -40 -6 0 -37 -25 -68 -56 -53 -52 -76 -61 -76 -28 0 18 -47
37 -80 31 -17 -4 -36 5 -65 28 -30 25 -64 39 -141 58 -68 16 -109 32 -126 48
-40 37 -79 69 -86 69 -3 0 -14 8 -24 17 -17 15 -20 15 -28 3 -6 -8 -10 -10
-10 -5 0 6 -4 4 -9 -4 -7 -11 -13 -12 -23 -4 -25 20 -72 22 -91 5 -18 -16 -17
-17 20 -34 21 -9 30 -17 21 -17 -46 -2 -7 -30 70 -50 23 -7 42 -16 42 -21 0
-6 7 -10 16 -10 8 0 30 -14 47 -32 39 -39 108 -88 167 -118 25 -12 52 -29 61
-36 9 -8 35 -16 57 -19 30 -2 49 -12 67 -32 30 -35 31 -39 3 -54 -20 -11 -132
-112 -162 -147 -54 -62 -76 -82 -87 -77 -9 3 -23 -13 -39 -46 -14 -28 -40 -67
-59 -86 -33 -34 -34 -36 -16 -49 10 -8 13 -14 7 -14 -7 0 -12 -9 -12 -20 0
-10 -6 -23 -12 -27 -7 -4 -21 -25 -30 -45 -17 -36 -38 -51 -38 -27 0 5 -5 7
-11 4 -7 -5 -5 -13 5 -24 14 -16 14 -21 -4 -56 -11 -22 -20 -47 -20 -57 0 -9
-5 -20 -11 -23 -6 -4 -8 -13 -5 -20 2 -7 0 -17 -6 -23 -14 -14 -60 -141 -59
-164 0 -10 -3 -18 -7 -18 -4 0 -8 -17 -8 -38 -1 -20 -6 -89 -11 -152 -5 -63
-6 -116 -1 -118 4 -2 5 -14 2 -27 -3 -14 1 -59 10 -102 8 -43 17 -89 19 -103
9 -51 29 -115 62 -197 19 -46 41 -119 50 -161 9 -42 25 -110 36 -151 16 -58
19 -90 15 -150 -7 -90 -16 -142 -26 -156 -13 -17 -52 -129 -56 -158 -4 -34
-16 -57 -58 -111 -18 -23 -42 -71 -55 -107 -13 -35 -40 -104 -61 -154 -73
-174 -130 -336 -147 -423 -10 -48 -21 -90 -26 -93 -4 -3 -5 -13 -1 -22 3 -10
1 -17 -5 -17 -6 0 -11 7 -11 15 0 8 -4 15 -9 15 -20 0 -22 -21 -5 -49 12 -21
15 -38 9 -67 -4 -22 -10 -33 -12 -26 -7 19 -23 14 -23 -8 0 -11 6 -19 13 -17
17 3 11 -105 -8 -115 -24 -14 -24 -433 0 -692 12 -129 18 -157 45 -212 16 -34
30 -72 30 -83 0 -18 8 -47 55 -196 7 -22 11 -53 8 -69 -3 -15 -1 -31 4 -35 6
-3 18 -31 28 -61 9 -30 23 -68 30 -85 21 -53 35 -101 35 -123 0 -12 4 -22 9
-22 5 0 17 -26 26 -57 9 -32 26 -76 36 -97 10 -22 19 -47 18 -55 0 -12 -3 -10
-9 4 -8 20 -9 20 -9 -1 -1 -11 6 -29 14 -40 8 -10 15 -30 16 -44 1 -18 3 -20
6 -7 5 21 51 -68 84 -162 10 -30 24 -60 30 -67 8 -10 8 -14 0 -14 -18 0 -13
-20 16 -69 20 -34 28 -41 31 -28 2 11 24 -22 55 -85 28 -57 66 -122 84 -146
18 -24 33 -48 33 -54 0 -5 12 -29 28 -52 15 -22 42 -75 60 -117 36 -82 35
-101 -10 -149 -13 -14 -38 -56 -55 -95 -25 -57 -35 -70 -52 -68 -18 2 -20 -1
-15 -22 7 -28 -29 -95 -51 -95 -13 0 -27 -34 -40 -98 -4 -18 -13 -36 -21 -39
-8 -3 -14 -13 -14 -23 0 -9 -9 -53 -19 -96 -11 -44 -19 -88 -18 -99 0 -11 -1
-45 -3 -75 l-3 -55 -8 50 c-4 30 -5 1 -2 -70 6 -147 10 -184 23 -260 5 -33 13
-77 16 -97 4 -21 17 -48 30 -61 13 -13 34 -47 47 -76 14 -28 32 -60 41 -70 10
-10 25 -38 34 -62 25 -63 140 -275 157 -289 8 -7 15 -18 15 -25 0 -7 10 -23
23 -36 12 -14 45 -52 72 -84 28 -33 53 -61 58 -63 17 -8 3 -42 -54 -132 -33
-52 -72 -115 -87 -139 -15 -24 -54 -80 -88 -125 -71 -94 -84 -117 -84 -145 0
-11 25 -92 55 -181 30 -90 61 -195 70 -234 8 -39 28 -125 44 -191 34 -135 55
-278 76 -505 8 -85 20 -180 26 -210 7 -30 12 -80 13 -112 1 -67 12 -83 27 -40
6 17 14 31 17 31 18 -2 49 14 59 30 7 11 17 56 23 102 6 46 21 129 34 184 14
55 30 126 36 158 6 31 16 57 21 57 6 0 8 8 5 18 -7 21 58 290 73 305 6 6 11
19 11 29 0 18 69 214 100 283 10 22 33 76 51 120 42 100 73 156 103 186 31 31
43 100 22 119 -10 7 -28 10 -46 7 -26 -6 -34 -1 -72 45 -24 28 -52 61 -64 72
-12 12 -39 51 -62 88 -22 37 -58 89 -80 115 -68 82 -68 81 -21 180 22 49 54
117 71 153 35 76 47 101 99 197 21 40 39 79 39 87 0 7 11 17 25 20 13 3 29 15
34 25 21 38 59 167 65 221 12 99 16 108 42 114 l24 6 2 158 c5 298 0 387 -23
470 -39 141 -70 227 -100 277 -73 122 -73 147 -4 245 24 35 58 97 76 139 17
42 39 94 50 116 64 136 129 303 129 332 0 13 4 23 9 23 5 0 18 33 31 73 31
103 42 129 61 157 10 14 25 61 34 105 9 44 21 102 26 129 6 28 9 60 6 73 -2
13 -1 23 2 23 3 0 7 10 7 23 2 35 43 250 53 277 10 30 26 88 40 150 5 25 13
56 16 70 3 14 8 50 11 80 9 93 33 222 44 235 10 13 7 383 -5 560 l-5 80 22
-40 c18 -33 23 -36 26 -20 2 10 -1 21 -7 23 -6 2 -11 11 -11 21 0 10 -9 51
-20 92 -11 41 -20 91 -20 111 0 20 -4 38 -10 40 -5 2 -12 23 -15 48 -3 25 -12
60 -21 78 -8 17 -17 56 -20 85 -3 28 -8 59 -11 67 -4 8 -8 25 -10 37 -2 12
-10 40 -18 62 -7 22 -11 49 -8 60 3 12 1 21 -6 21 -15 0 -7 123 9 128 10 4 40
54 40 68 0 4 -11 -3 -25 -16 -21 -19 -25 -21 -25 -7 0 9 5 17 10 17 6 0 10 15
10 33 0 17 5 50 12 72 6 22 11 43 10 48 -1 4 2 7 7 7 5 0 12 16 15 35 12 63
28 51 22 -17 -4 -46 -3 -55 3 -35 5 16 12 62 14 102 2 46 10 83 20 99 10 14
27 51 38 82 12 31 33 75 48 98 27 41 49 91 58 134 3 12 12 22 19 22 8 0 14 5
14 10 0 6 -6 9 -12 8 -8 -2 -14 9 -16 25 -4 36 -22 35 -22 -2 0 -32 -15 -47
-42 -43 -20 4 -25 -24 -6 -30 14 -5 -35 -88 -51 -88 -15 0 -132 -121 -126
-131 4 -5 -3 -9 -13 -9 -11 0 -25 -6 -31 -14 -7 -8 -35 -25 -64 -39 -29 -14
-59 -32 -66 -41 -9 -10 -21 -14 -33 -10 -15 4 -31 -4 -59 -32 -35 -34 -43 -38
-86 -35 -27 1 -52 6 -58 12 -12 12 -38 12 -30 -1 3 -5 2 -10 -3 -10 -5 0 -12
9 -15 20 -4 14 -14 20 -35 20 -23 0 -36 8 -52 30 -15 21 -33 32 -61 36 -23 4
-39 12 -39 20 0 8 -7 14 -15 14 -8 0 -15 5 -15 10 0 6 -9 10 -20 10 -13 0 -20
-7 -20 -20 0 -11 6 -20 13 -20 7 0 13 -10 14 -21 1 -12 8 -29 16 -38 30 -32
41 -96 28 -157 -14 -70 -14 -94 -1 -94 6 0 10 9 10 19 0 25 16 36 24 16 3 -8
1 -15 -5 -15 -6 0 -9 -6 -6 -13 2 -7 0 -35 -5 -62 -5 -28 -9 -58 -9 -68 0 -9
-4 -15 -8 -12 -18 11 -32 -95 -32 -238 1 -149 1 -149 33 -208 43 -78 63 -86
54 -23 -3 28 -2 52 4 59 6 7 13 37 16 66 3 30 8 61 12 69 3 8 6 33 7 54 1 22
7 42 13 44 7 2 12 8 12 14 0 15 27 38 44 38 21 0 34 -54 46 -190 6 -63 15
-139 20 -169 6 -30 10 -74 10 -97 0 -35 12 -109 35 -220 3 -14 -1 -24 -11 -28
-11 -4 -15 -2 -11 8 7 19 -14 66 -30 66 -6 0 -20 14 -30 30 -19 33 -30 38 -35
16 -2 -11 -13 -7 -43 14 -91 66 -134 82 -215 82 -79 0 -111 -12 -184 -67 -17
-12 -51 -32 -76 -42 -25 -11 -58 -34 -74 -52 -17 -17 -37 -31 -47 -31 -9 0
-32 -17 -52 -39 -19 -21 -46 -41 -61 -45 -14 -3 -26 -13 -26 -21 0 -8 -6 -15
-14 -15 -8 0 -17 -6 -19 -12 -4 -10 -6 -10 -6 0 -1 7 6 24 15 37 9 13 14 30
11 37 -2 7 -19 -17 -38 -54 -18 -38 -37 -68 -41 -68 -11 0 -10 13 2 46 7 18 7
30 0 40 -13 14 3 54 21 54 5 0 14 10 19 23 9 22 9 22 9 -3 1 -22 5 -20 32 22
29 44 32 77 7 62 -8 -5 -9 -1 -4 12 5 10 13 31 18 47 6 17 16 26 26 25 10 -2
19 6 22 22 13 53 53 128 71 133 13 4 17 10 13 22 -4 9 -3 20 2 24 5 3 15 19
22 34 7 15 17 25 22 22 6 -3 10 1 10 9 0 20 58 135 81 161 22 25 28 57 12 62
-7 3 -13 -2 -13 -10 0 -18 -29 -51 -53 -60 -13 -5 -17 -15 -15 -34 3 -27 1
-28 -61 -36 -36 -4 -70 -6 -76 -3 -14 5 -55 127 -55 164 0 15 4 32 9 37 13 13
82 233 120 380 17 66 35 134 41 150 39 125 55 405 30 533 -7 34 -10 66 -6 69
8 9 86 -67 86 -84 0 -26 20 -12 21 15 3 68 -7 115 -18 84 -4 -9 -12 -3 -24 17
-10 17 -16 37 -13 44 2 7 -4 22 -16 32 -12 11 -20 31 -20 50 0 39 -18 95 -31
95 -5 0 -9 6 -9 14 0 20 -60 116 -73 116 -5 0 -6 7 -3 16 4 10 -1 25 -10 36
-22 23 -21 108 1 121 8 4 15 22 15 39 0 27 2 30 25 24 28 -7 35 8 8 18 -28 11
22 39 57 32 16 -3 32 -1 35 4 3 6 1 10 -5 10 -25 0 3 19 28 20 106 1 221 13
216 22 -4 6 12 8 42 4 27 -2 55 -5 62 -5 7 -1 10 -5 7 -11 -3 -5 1 -10 10 -10
9 0 13 5 10 10 -9 14 26 12 51 -3 11 -7 33 -22 49 -35 l28 -22 -28 -53 c-16
-28 -48 -71 -72 -94 l-43 -42 32 -17 c53 -27 118 -83 112 -98 -3 -8 14 -30 42
-52 71 -58 187 -220 210 -293 6 -19 16 -37 22 -39 16 -5 16 72 0 101 -17 33
-34 221 -27 312 6 89 30 237 38 245 3 3 7 19 8 35 4 51 14 95 22 95 4 0 6 -15
4 -32 -3 -28 -2 -30 7 -15 14 21 18 96 6 96 -16 -1 -22 20 -24 93 -2 39 -5 75
-8 80 -11 17 -24 7 -25 -19 l-1 -28 -10 30 c-14 44 -20 76 -19 108 0 17 -5 27
-14 27 -8 0 -12 6 -9 14 3 8 0 24 -6 36 -10 18 -9 24 1 31 10 6 7 14 -14 35
-29 28 -33 39 -18 48 17 11 -11 73 -53 117 -55 58 -102 97 -124 101 -9 2 -16
10 -15 16 2 7 -2 12 -7 12 -6 0 -10 7 -10 15 0 8 -4 15 -9 15 -4 0 -22 30 -40
68 -18 37 -37 76 -44 87 -75 124 -78 127 -98 122 -35 -9 -34 22 2 59 21 22 34
46 35 64 1 21 14 41 50 74 27 25 52 45 57 46 4 0 7 7 7 15 0 8 6 15 13 15 10
0 28 13 84 60 7 5 19 10 28 10 8 0 15 5 15 10 0 6 6 10 13 10 6 0 37 23 67 50
30 28 82 68 115 89 33 22 67 46 75 53 9 8 31 13 50 12 45 -2 54 4 35 22 -21
22 -19 33 10 40 14 3 25 9 25 13 0 4 16 12 35 18 20 6 35 7 35 2 0 -5 11 -9
24 -9 19 0 25 6 29 33 2 17 4 33 3 34 0 0 -17 4 -36 8 -29 5 -50 -2 -120 -38z
m-727 -828 c15 -18 27 -37 27 -44 0 -7 10 -25 22 -40 24 -31 34 -90 18 -100
-8 -5 -7 -11 1 -21 6 -7 15 -11 20 -9 9 6 32 -31 37 -60 6 -41 2 -165 -7 -188
-6 -15 -6 -28 0 -34 12 -12 -31 -97 -74 -145 -30 -34 -37 -37 -64 -29 -18 5
-37 5 -47 -1 -19 -11 -43 -8 -126 15 -30 8 -58 13 -63 10 -4 -2 -14 0 -21 7
-8 6 -24 13 -37 15 -27 5 -41 25 -29 40 6 7 3 22 -6 39 -10 20 -11 33 -4 41 5
6 8 14 5 17 -3 3 1 11 10 18 8 7 15 23 15 36 0 12 5 26 10 29 8 5 8 11 0 20
-8 9 -8 15 0 20 6 3 8 10 5 15 -3 5 -1 11 5 15 5 3 10 13 10 22 0 9 12 41 27
72 14 31 31 67 37 81 33 78 101 188 123 202 22 13 29 13 52 2 14 -8 38 -28 54
-45z m252 -3968 c42 -19 46 -24 93 -132 33 -74 46 -88 61 -62 10 17 10 16 11
-2 0 -11 6 -29 14 -40 7 -11 19 -38 26 -60 7 -22 22 -60 34 -85 16 -35 20 -61
19 -120 -3 -77 -28 -230 -43 -258 -20 -39 -40 -91 -40 -104 0 -8 -9 -23 -19
-35 -10 -11 -26 -33 -34 -49 -25 -48 -62 -77 -90 -70 -13 3 -32 0 -42 -8 -19
-14 -32 -13 -72 7 -13 6 -25 8 -27 6 -8 -8 15 -115 31 -143 13 -24 16 -63 17
-215 1 -102 -2 -214 -6 -247 -6 -56 -58 -213 -80 -240 -4 -6 -27 -48 -49 -93
-23 -44 -45 -81 -51 -81 -5 0 -7 -3 -5 -7 2 -5 -7 -19 -20 -32 l-23 -24 0 28
c0 15 -6 33 -14 39 -7 6 -31 70 -52 141 -20 72 -40 135 -44 140 -7 10 -5 211
2 252 2 13 7 26 11 29 4 4 7 15 7 25 0 9 5 19 10 21 6 2 12 13 14 25 3 12 12
33 22 48 9 14 14 28 10 32 -3 3 3 21 15 39 11 18 22 47 24 65 2 18 8 35 14 38
6 4 13 26 17 49 8 51 -9 50 -41 -1 -15 -25 -35 -37 -85 -54 -36 -12 -74 -22
-85 -22 -34 -1 -74 43 -96 105 -53 156 -70 323 -55 549 7 111 8 118 43 195 14
30 31 69 38 85 38 88 55 114 115 175 82 84 106 96 200 99 41 1 77 4 79 7 12
11 111 1 146 -15z m-262 -2583 c61 -31 162 -185 187 -283 5 -16 20 -63 34
-102 14 -40 26 -85 26 -100 0 -16 7 -62 16 -103 27 -126 8 -292 -51 -450 -21
-58 -84 -186 -110 -225 -21 -33 -74 -139 -120 -242 -28 -61 -28 -62 -50 -45
-56 44 -115 124 -121 163 -5 29 -13 44 -30 51 -13 6 -34 27 -48 47 -29 41 -74
155 -80 203 -3 18 -12 56 -21 83 -9 28 -16 69 -16 93 1 24 -3 69 -8 101 -11
68 8 254 30 289 10 16 11 24 2 33 -7 7 -8 18 -3 28 4 9 48 96 96 194 88 181
119 223 187 259 38 21 51 22 80 6z m-16 -2117 c12 -24 38 -58 58 -76 40 -38
42 -48 17 -90 -56 -92 -111 -205 -117 -243 -9 -53 -34 -54 -47 -2 -5 19 -16
50 -24 68 -8 18 -13 41 -9 51 5 17 -13 69 -37 103 -10 14 -9 21 7 37 10 12 15
24 12 28 -10 9 31 35 43 28 6 -3 12 0 14 7 27 96 43 137 51 135 5 -2 19 -23
32 -46z"/>
<path d="M12400 10965 c0 -15 -71 -137 -95 -163 -7 -8 -15 -10 -18 -5 -4 5 10
33 29 62 20 29 33 55 30 59 -8 7 -26 -17 -68 -90 -20 -35 -38 -56 -46 -53 -26
10 -48 -15 -81 -89 -31 -71 -36 -77 -73 -87 -22 -5 -59 -27 -81 -48 -47 -43
-97 -71 -125 -71 -10 0 -22 -3 -26 -7 -4 -4 -22 -8 -40 -9 -19 0 -43 -10 -56
-21 l-22 -21 21 -12 c12 -6 30 -9 40 -5 29 9 46 -22 46 -87 0 -45 -3 -57 -13
-53 -8 3 -12 0 -9 -7 7 -21 -12 -48 -33 -48 -11 0 -20 -5 -20 -10 0 -7 -6 -8
-16 -2 -23 13 -146 2 -162 -15 -16 -16 -52 -17 -52 -2 0 9 -16 7 -56 -8 -7 -3
-11 19 -12 63 -1 64 -1 66 28 77 17 6 30 17 30 24 0 14 -13 17 -24 6 -4 -5
-19 -8 -32 -8 -19 -1 -23 3 -18 18 5 16 2 18 -14 12 -14 -4 -35 3 -61 20 -22
14 -47 25 -55 25 -8 0 -18 5 -22 11 -4 8 -9 7 -15 -2 -7 -11 -9 -9 -9 6 0 16
-11 23 -47 33 -27 7 -56 14 -65 15 -10 1 -18 7 -18 13 0 13 -23 29 -97 71 -59
32 -108 78 -108 101 0 11 -10 18 -28 20 -26 3 -27 2 -18 -17 16 -29 14 -39
-11 -43 -19 -2 -15 -7 27 -29 27 -14 54 -35 60 -45 11 -21 62 -83 102 -126 14
-15 22 -31 19 -36 -3 -5 19 -39 49 -75 89 -108 74 -157 -48 -157 -29 0 -72 -7
-96 -16 -30 -10 -58 -13 -85 -8 -23 4 -70 6 -104 5 -35 0 -68 1 -72 4 -13 8
10 65 25 65 7 0 16 7 19 16 9 22 8 24 -9 24 -8 0 -15 6 -15 14 0 7 7 19 15 26
10 9 15 9 15 1 0 -6 11 -1 25 11 14 12 25 24 25 27 0 3 -18 7 -39 7 -22 1 -52
9 -68 17 -15 9 -45 19 -66 22 -20 3 -52 19 -70 34 -18 16 -50 32 -73 35 -39 7
-150 83 -145 100 1 4 -33 35 -76 69 -43 34 -102 86 -132 115 -52 51 -78 66
-68 38 3 -8 1 -16 -6 -19 -7 -2 -2 -16 16 -38 15 -19 31 -39 35 -44 4 -6 13
-18 20 -27 12 -15 11 -17 -14 -15 -20 1 -29 -3 -32 -15 -2 -12 3 -18 13 -18 9
0 13 5 10 10 -10 16 1 12 40 -14 21 -14 43 -22 52 -19 12 5 15 2 10 -10 -3 -9
-2 -17 3 -17 6 0 10 -6 10 -12 0 -7 9 -24 20 -38 50 -62 90 -120 90 -128 0 -5
10 -22 21 -36 22 -28 102 -220 119 -286 5 -19 21 -75 35 -125 21 -74 27 -118
31 -245 2 -85 0 -188 -6 -227 -5 -40 -14 -105 -20 -145 -5 -39 -13 -74 -19
-77 -9 -6 2 -212 13 -229 2 -4 7 -36 11 -71 4 -35 11 -76 17 -90 6 -14 11 -35
12 -46 1 -11 8 -20 16 -20 8 0 21 -7 28 -15 10 -13 12 -10 10 15 -2 17 -7 33
-12 37 -10 7 -10 99 0 188 6 59 59 282 74 315 5 11 12 31 15 43 30 106 194
282 263 282 10 0 19 7 19 15 0 19 -67 21 -85 3 -9 -9 -18 -6 -40 15 -15 15
-38 27 -50 27 -19 0 -21 4 -16 27 6 22 4 25 -11 20 -15 -6 -16 -3 -11 19 8 32
54 94 70 95 49 5 72 9 99 18 18 6 64 10 102 9 39 0 77 1 85 3 8 2 15 0 15 -6
17 -154 21 -407 10 -655 -4 -91 -3 -183 1 -205 5 -22 6 -76 3 -120 -4 -44 -9
-168 -12 -275 -3 -107 -8 -215 -12 -240 -5 -33 -4 -41 4 -30 8 11 11 -23 12
-125 1 -77 1 -144 0 -149 -1 -5 3 -30 9 -55 13 -56 17 -178 6 -208 -4 -13 -4
-28 0 -34 21 -34 25 -587 4 -574 -6 4 -10 -5 -10 -20 0 -15 -5 -36 -11 -47 -9
-16 -8 -23 2 -29 11 -7 9 -10 -9 -15 -12 -4 -29 -19 -37 -35 -19 -35 -19 -40
0 -33 20 8 19 -10 -1 -30 -8 -9 -12 -20 -9 -26 3 -5 1 -10 -6 -10 -10 0 -10
-3 -1 -12 7 -7 12 -19 12 -28 0 -8 11 -24 25 -34 24 -18 36 -44 14 -30 -7 4
-10 1 -7 -7 3 -8 11 -13 17 -12 22 5 18 -143 -6 -256 -12 -55 -13 -75 -4 -81
9 -5 9 -22 0 -71 -18 -96 -18 -437 -1 -529 8 -41 19 -85 24 -96 6 -12 7 -32 3
-44 -4 -13 -3 -25 3 -29 10 -6 22 -58 41 -176 10 -63 22 -90 40 -90 8 0 19
-15 24 -34 7 -27 5 -36 -7 -43 -9 -5 -16 -18 -16 -30 0 -16 4 -19 24 -14 26 6
24 10 62 -89 15 -40 23 -52 23 -36 1 25 -34 152 -50 183 -5 10 -9 28 -9 41 0
13 -5 28 -11 34 -15 15 -3 33 23 33 18 0 19 4 14 33 -3 17 -9 52 -12 77 -4 25
-11 51 -17 58 -7 8 -7 16 -1 20 5 4 9 96 10 210 0 143 4 206 12 214 15 15 16
32 2 23 -16 -10 -12 12 6 29 8 9 11 16 5 16 -6 0 -11 9 -11 20 0 11 5 20 11
20 8 0 8 4 -1 15 -14 17 -4 39 16 31 9 -3 14 1 14 13 0 10 3 21 8 25 4 4 7 11
8 14 3 35 19 72 33 77 13 4 17 16 17 54 0 29 7 59 17 74 19 29 23 52 7 42 -5
-3 -10 -2 -10 2 0 8 66 160 122 283 27 58 28 71 4 51 -11 -9 -16 -9 -21 0 -10
15 15 31 38 25 11 -3 20 2 24 12 10 30 43 96 74 147 100 166 59 163 -52 -5
-31 -47 -68 -96 -82 -109 -15 -13 -24 -28 -21 -32 3 -5 2 -14 -2 -20 -5 -8 -8
-8 -13 0 -9 14 -78 -51 -91 -85 -18 -45 -40 -22 -39 41 1 108 11 185 25 185
10 0 14 12 14 40 0 25 -5 40 -12 40 -10 0 -13 29 -14 107 0 60 -4 131 -8 158
-9 64 -9 239 0 750 6 359 8 411 23 421 19 15 22 95 3 102 -18 6 -15 62 4 62
11 0 14 8 12 33 -2 20 -8 32 -18 32 -20 0 -22 81 -3 100 17 17 17 25 -1 25 -8
0 -13 7 -11 18 2 9 7 87 10 172 4 85 9 211 13 280 9 147 7 438 -2 447 -3 4 -6
22 -6 41 0 33 1 34 28 26 15 -4 74 -8 132 -9 166 -2 162 -2 148 -25 -11 -16
-10 -26 6 -54 20 -37 18 -83 -3 -78 -7 1 -19 -5 -26 -14 -11 -15 -12 -16 -18
0 -4 9 -14 16 -23 16 -16 0 -16 -1 -1 -18 22 -24 21 -32 -2 -32 -22 0 -58 43
-41 48 5 2 3 10 -5 19 -18 17 -45 11 -45 -10 0 -8 10 -22 23 -30 l22 -16 -22
0 c-13 -1 -23 -6 -23 -11 0 -13 56 -48 90 -57 13 -3 33 -15 44 -25 11 -10 23
-18 27 -18 16 0 83 -105 111 -173 39 -96 99 -215 115 -229 22 -18 16 18 -11
61 -21 32 -46 100 -46 124 0 4 8 7 18 6 9 0 12 -3 6 -5 -12 -5 17 -95 38 -121
16 -20 38 -101 27 -105 -5 -2 4 -43 21 -91 16 -49 30 -94 30 -101 0 -7 9 -42
21 -77 25 -77 45 -103 34 -45 -6 37 -5 39 11 25 16 -13 17 -12 11 11 -4 14
-12 47 -17 74 -11 53 -76 259 -90 286 -6 12 -3 21 10 32 17 15 18 34 18 217 0
110 3 213 7 229 4 22 2 31 -9 35 -9 4 -16 12 -16 18 0 8 4 8 15 -1 13 -11 15
-8 15 19 0 17 -4 31 -10 31 -5 0 -10 5 -10 10 0 6 7 10 16 10 13 0 15 10 12
54 -2 42 1 57 13 64 10 7 22 43 33 102 9 50 23 110 30 133 8 23 17 59 21 80 3
21 13 41 20 44 8 3 13 9 10 13 -5 7 11 58 47 153 6 15 17 27 25 27 9 0 13 6 9
15 -3 8 -1 15 4 15 4 0 14 16 20 35 6 19 15 33 20 30 8 -5 20 28 20 59 0 20 0
20 -15 0 -8 -10 -15 -14 -15 -7 0 6 6 18 13 25 28 28 76 125 71 143 -3 13 5
30 21 48 22 23 55 84 55 102 0 3 -11 5 -25 5 -16 0 -25 -6 -25 -15z"/>
<path d="M5413 10892 c-6 -15 -14 -39 -17 -54 -3 -15 -12 -33 -19 -40 -14 -15
-41 -69 -57 -111 -5 -15 -36 -69 -67 -120 -32 -51 -67 -112 -78 -137 -11 -25
-32 -67 -48 -94 -30 -51 -190 -373 -290 -581 -31 -66 -72 -145 -89 -175 -34
-59 -211 -314 -234 -337 -8 -8 -14 -18 -14 -21 0 -4 -20 -27 -44 -52 -24 -24
-42 -50 -39 -56 2 -6 -21 -45 -52 -88 -58 -82 -64 -96 -40 -96 8 0 15 6 15 13
0 7 15 31 33 53 18 21 46 57 61 79 16 22 59 73 95 114 47 53 67 70 69 58 5
-26 19 -20 31 14 14 40 36 59 116 101 42 21 67 29 74 23 10 -11 20 -207 21
-394 0 -96 2 -112 15 -107 17 6 21 -9 4 -19 -7 -5 -9 -32 -5 -79 23 -294 51
-971 47 -1146 0 -38 -9 -86 -21 -115 -11 -27 -19 -57 -18 -65 1 -8 0 -24 -1
-35 -1 -16 -3 -17 -10 -6 -6 10 -11 5 -16 -19 -20 -90 -236 -377 -298 -396
-45 -13 -117 -66 -117 -86 0 -11 4 -16 11 -13 6 4 31 -1 55 -10 43 -16 48 -16
92 1 26 9 61 26 77 36 45 27 61 22 25 -8 -17 -15 -40 -44 -51 -66 -23 -45 -19
-65 5 -21 8 15 15 23 16 17 0 -20 -28 -80 -44 -94 -9 -7 -17 -22 -17 -34 -1
-15 -3 -13 -9 9 -6 27 -8 28 -14 10 -24 -62 -53 -128 -88 -200 -54 -108 -89
-212 -82 -241 4 -15 2 -24 -5 -24 -6 0 -11 -15 -11 -34 0 -19 -7 -41 -15 -50
-8 -8 -15 -24 -15 -35 0 -12 -4 -29 -10 -39 -23 -40 -66 -192 -57 -201 6 -6 5
-21 -3 -40 -6 -16 -10 -36 -8 -43 6 -17 81 140 83 171 0 14 6 26 13 29 7 2 12
8 12 14 0 10 21 62 43 107 7 13 16 23 21 22 5 -2 12 3 16 9 4 6 29 12 55 12
37 1 43 3 28 11 -10 6 -19 11 -21 12 -1 1 0 10 4 19 6 16 40 21 60 8 46 -29
104 -89 104 -106 -1 -19 -2 -19 -16 4 -12 19 -14 20 -10 5 9 -38 36 -110 51
-137 8 -14 28 -77 44 -140 84 -324 96 -359 117 -351 9 3 14 -1 14 -12 0 -9 -5
-13 -11 -9 -12 7 -3 -49 12 -76 6 -11 9 -9 9 10 l1 25 14 -25 c8 -14 19 -47
26 -75 6 -27 15 -52 18 -55 4 -3 17 -52 29 -110 28 -127 68 -266 86 -300 7
-14 11 -30 9 -37 -2 -6 1 -14 6 -18 6 -3 11 -17 11 -31 0 -13 4 -24 9 -24 5 0
12 -11 15 -25 4 -14 11 -25 16 -25 5 0 16 -16 24 -35 8 -19 20 -35 26 -35 15
0 5 33 -25 85 -24 42 -85 190 -85 205 0 5 7 6 17 3 18 -7 13 7 -15 40 -8 9
-12 17 -8 17 4 0 2 9 -4 21 -10 18 -22 64 -51 199 -16 70 -38 254 -32 263 3 5
4 64 4 132 -2 101 2 134 19 181 22 63 25 90 11 96 -5 2 -4 32 1 69 8 53 14 69
31 77 12 6 16 11 9 11 -9 1 -11 13 -6 44 8 63 44 198 61 231 8 16 22 52 30 80
8 28 30 83 48 121 18 39 40 87 49 108 9 20 22 37 30 37 7 0 19 7 26 15 10 12
10 15 -4 15 -31 0 -15 59 38 135 12 17 24 32 29 33 10 5 9 30 -3 37 -17 10
-53 -32 -47 -55 4 -17 2 -20 -14 -15 -13 4 -21 1 -25 -10 -4 -9 -25 -34 -48
-55 -22 -21 -38 -42 -34 -46 4 -4 14 -1 23 6 20 16 19 5 -2 -33 -27 -47 -55
-77 -72 -77 -9 0 -29 -7 -44 -15 -32 -16 -49 -11 -92 30 -33 30 -51 105 -50
203 1 51 6 77 16 84 11 7 11 11 2 15 -16 6 -17 35 -1 51 17 17 28 15 28 -4 0
-25 35 23 44 60 4 16 16 36 27 45 10 9 20 28 21 42 2 19 13 34 40 50 21 13 38
27 38 31 0 3 29 10 65 13 54 6 69 4 84 -9 10 -9 24 -16 32 -16 42 0 201 -136
234 -200 10 -19 33 -52 51 -72 24 -27 31 -42 27 -60 -6 -21 -5 -22 11 -9 20
17 19 17 35 -37 10 -35 15 -41 26 -32 11 9 16 4 24 -27 16 -55 27 -71 42 -56
9 9 9 19 3 34 -7 15 -7 35 -1 58 8 31 6 45 -17 94 -20 40 -26 66 -21 86 3 17
-1 45 -11 70 -23 59 -13 309 17 426 6 21 15 80 20 130 18 189 27 253 39 274 6
13 9 25 7 28 -3 2 -1 19 4 36 6 18 12 46 15 64 2 17 8 42 13 55 8 21 9 20 17
-17 l7 -40 9 30 c11 39 1 127 -21 179 -10 22 -21 61 -25 86 -8 49 -38 145 -56
182 -30 56 -156 234 -194 272 -22 23 -57 64 -76 92 -42 59 -48 64 -81 64 -14
0 -35 9 -47 20 -32 30 -35 25 -12 -20 11 -21 20 -49 20 -60 0 -28 15 -55 60
-110 50 -60 69 -99 71 -149 2 -22 6 -41 10 -41 3 0 4 -12 2 -27 -2 -16 -6 -50
-9 -76 -5 -60 -96 -249 -133 -278 -14 -11 -28 -30 -31 -42 -3 -12 -16 -26 -28
-32 -28 -12 -32 -61 -4 -50 9 4 45 8 79 10 58 4 61 3 72 -23 13 -30 9 -52 -36
-223 l-28 -106 -70 5 c-38 2 -71 6 -73 7 -6 6 27 73 40 81 15 10 20 44 6 44
-5 0 -2 7 6 16 18 17 20 32 8 52 -7 9 -16 10 -41 1 -18 -6 -54 -9 -81 -7 -39
4 -50 1 -61 -14 -13 -18 -14 -18 -20 4 -3 13 -1 32 4 42 6 13 6 47 -1 100 -16
117 -33 312 -34 380 0 32 -3 54 -7 48 -9 -14 -2 563 8 675 12 134 7 243 -15
297 -5 14 -4 17 4 12 14 -8 15 3 3 23 -5 8 -3 24 6 42 15 30 33 39 33 17 0 -9
3 -8 10 2 8 12 19 6 61 -35 71 -70 144 -166 141 -187 -4 -22 26 -79 49 -96 11
-7 19 -19 19 -26 0 -7 11 -23 25 -36 20 -19 25 -20 25 -7 0 9 -4 19 -10 22 -5
3 -10 22 -10 42 0 20 -13 60 -30 92 -30 57 -77 212 -86 286 -3 22 -16 87 -29
145 -35 161 -38 234 -15 405 36 266 47 324 78 383 24 46 29 68 27 112 -1 30 4
72 11 94 8 21 12 42 9 46 -3 4 2 11 11 14 8 3 12 10 9 16 -3 5 -7 28 -9 50 -4
51 -9 56 -23 22z"/>
<path d="M6280 10771 c-39 -42 -54 -64 -72 -101 -7 -14 -20 -36 -30 -49 -10
-13 -18 -32 -18 -42 0 -9 -6 -24 -12 -31 -21 -22 -38 -56 -38 -75 0 -9 -9 -26
-19 -37 -11 -12 -21 -32 -23 -46 -1 -14 -8 -31 -15 -37 -6 -7 -14 -32 -18 -55
-4 -24 -17 -70 -30 -103 -33 -87 -41 -124 -61 -290 -3 -22 -11 -69 -19 -105
-7 -36 -19 -92 -25 -125 -14 -74 -57 -201 -79 -235 -32 -47 -82 -160 -76 -170
3 -5 0 -10 -7 -10 -7 0 -20 -11 -28 -24 -8 -13 -32 -49 -52 -80 -21 -31 -38
-61 -38 -66 0 -21 17 -8 50 35 37 49 46 54 53 28 4 -20 5 -18 23 42 5 16 19
35 31 41 13 6 34 28 48 49 34 49 50 65 68 65 9 0 17 4 19 9 2 4 13 12 26 15
19 6 22 4 23 -21 1 -15 3 -45 4 -65 3 -32 1 -38 -16 -38 -10 0 -19 -4 -19 -10
0 -5 5 -10 11 -10 11 0 9 -56 -8 -177 -5 -37 -3 -43 12 -43 10 0 16 -3 13 -6
-4 -3 -2 -19 2 -35 5 -17 5 -29 0 -29 -6 0 -6 -9 -1 -22 5 -13 12 -90 16 -173
4 -82 9 -166 12 -185 2 -19 3 -57 3 -84 -1 -30 4 -53 12 -58 10 -8 10 -11 1
-15 -18 -7 -17 -73 1 -73 11 0 15 -17 18 -65 1 -36 0 -65 -4 -65 -5 0 -8 15
-8 33 0 24 -3 28 -10 17 -10 -15 -6 -241 9 -440 4 -58 6 -140 5 -182 -2 -61 1
-78 12 -78 8 0 14 -5 14 -11 0 -5 -4 -8 -9 -4 -5 3 -12 1 -16 -5 -3 -5 -1 -10
4 -10 16 0 13 -29 -4 -46 -18 -19 -20 -60 -2 -67 9 -4 9 -8 1 -14 -7 -4 -11
-21 -10 -38 0 -19 -4 -29 -11 -28 -7 2 -19 -20 -28 -49 -22 -74 -105 -219
-132 -229 -30 -11 -33 -60 -4 -52 11 3 27 14 37 24 23 25 29 24 70 -13 l35
-32 -7 -101 c-7 -104 -24 -165 -56 -201 -10 -11 -18 -24 -18 -28 0 -4 -11 -19
-24 -33 -23 -24 -63 -102 -146 -278 -51 -108 -81 -204 -78 -244 2 -24 -3 -42
-14 -53 -11 -11 -17 -33 -17 -72 0 -31 4 -56 8 -56 9 0 45 80 55 122 3 14 22
41 41 59 32 31 48 58 25 44 -31 -19 21 63 57 90 20 16 53 20 53 7 0 -5 10 -8
22 -8 14 1 24 -6 27 -19 8 -28 61 -117 83 -138 22 -22 25 -45 3 -27 -22 18
-19 9 25 -73 21 -41 37 -77 34 -80 -4 -3 -2 -12 2 -19 5 -7 10 -22 10 -33 3
-41 26 -140 35 -151 5 -7 12 -29 14 -49 3 -20 8 -42 11 -47 4 -6 1 -14 -7 -18
-17 -11 4 -60 26 -60 17 0 20 -16 5 -25 -5 -3 -10 -1 -10 4 0 6 -7 11 -15 11
-13 0 -13 -5 1 -37 9 -21 32 -78 51 -128 51 -133 76 -183 81 -162 2 9 7 17 12
17 5 0 2 16 -6 35 -17 42 -19 64 -3 48 10 -10 109 -244 126 -295 5 -18 23 -25
23 -10 0 4 -16 43 -35 87 -19 44 -32 89 -29 100 3 11 -7 46 -21 78 -67 153
-110 352 -130 607 -4 41 -9 83 -11 93 -6 20 9 129 33 230 8 37 13 82 11 99 -4
27 28 139 59 208 3 8 14 38 23 65 9 30 22 50 30 50 8 0 18 5 22 10 11 15 10
37 -2 30 -5 -3 -10 -1 -10 4 0 6 9 11 20 11 16 0 20 7 20 35 0 19 4 35 9 35 5
0 12 14 16 31 6 26 10 30 31 25 14 -4 24 -2 24 4 0 6 4 9 9 6 5 -3 16 5 25 19
9 14 23 25 30 25 16 0 26 21 26 53 0 19 -3 18 -22 -10 -39 -55 -74 -55 -62 0
l7 32 -29 -30 c-19 -20 -46 -35 -76 -41 -46 -11 -47 -11 -50 15 -2 14 -9 25
-15 24 -7 -2 -13 2 -13 7 0 6 5 10 10 10 12 0 13 37 1 44 -14 9 -1 209 15 227
8 8 14 20 14 26 0 6 11 18 25 27 23 15 27 15 72 -10 98 -54 149 -103 379 -368
19 -22 34 -41 34 -43 0 -1 8 -11 18 -21 70 -73 103 -115 133 -167 44 -76 52
-95 36 -95 -6 0 3 -14 20 -32 18 -18 35 -29 38 -26 3 3 -4 27 -16 54 -34 80
-81 226 -85 269 -2 22 -11 63 -19 90 -10 31 -18 98 -20 174 -3 67 -9 128 -14
135 -7 8 -5 39 6 95 14 71 15 84 2 92 -10 6 -11 9 -1 9 10 0 10 5 1 22 -8 16
-9 23 -1 26 6 2 8 10 5 18 -3 8 0 14 7 14 6 0 8 5 5 10 -3 6 1 13 9 16 11 4
14 13 10 31 -4 15 -2 28 5 33 11 6 19 44 37 190 3 25 12 66 20 92 9 26 13 52
10 57 -4 5 0 12 6 15 8 4 9 8 3 11 -7 3 -9 33 -7 75 2 38 -2 114 -10 167 -9
54 -16 113 -16 131 -1 18 -6 40 -12 50 -9 14 -10 12 -5 -10 8 -41 -10 -34 -23
9 -12 39 -7 57 8 33 9 -13 10 -13 9 0 0 21 -26 66 -36 62 -4 -1 -8 13 -9 31
-1 42 -27 86 -66 112 -16 11 -40 38 -52 60 -26 48 -53 80 -69 80 -6 0 -21 14
-32 32 -20 32 -35 42 -35 23 0 -11 9 -30 79 -165 41 -79 42 -81 39 -172 -1
-51 -6 -93 -10 -93 -4 0 -8 -19 -8 -42 0 -24 -11 -65 -23 -93 -13 -27 -27 -62
-30 -77 -8 -31 -56 -84 -73 -80 -7 1 -16 -11 -22 -27 -6 -16 -22 -34 -39 -41
-26 -12 -59 -57 -49 -68 4 -3 44 29 81 65 12 11 31 13 118 12 25 0 27 -2 27
-45 0 -37 -5 -51 -30 -76 -32 -32 -37 -44 -18 -50 16 -6 -18 -54 -42 -61 -19
-5 -40 -61 -40 -109 0 -32 -15 -35 -63 -15 -18 8 -57 22 -87 32 -69 22 -74 27
-66 60 4 17 12 25 24 23 9 -1 30 10 46 25 33 31 34 30 -31 18 -113 -22 -123
-23 -117 -6 5 11 -1 15 -20 15 -14 0 -26 3 -27 8 0 4 -2 21 -4 37 -9 71 -23
432 -18 453 3 13 0 64 -6 115 -6 51 -16 181 -22 291 -9 157 -9 200 1 206 8 5
9 13 4 21 -5 8 -9 37 -11 64 -1 28 -4 92 -7 143 -4 52 -2 92 3 92 5 0 11 15
13 33 3 17 8 40 13 50 5 12 3 17 -8 17 -9 0 -21 -8 -26 -17 -9 -15 -10 -14
-11 9 0 19 4 26 13 22 8 -3 20 2 27 11 17 21 30 19 30 -5 0 -13 7 -20 20 -20
11 0 20 -5 20 -11 0 -5 -4 -7 -10 -4 -5 3 -10 1 -10 -4 0 -6 15 -11 34 -11 25
0 35 5 39 20 9 36 28 22 25 -17 -2 -30 1 -40 17 -47 11 -5 36 -28 55 -52 32
-39 75 -63 88 -50 3 3 -3 15 -13 26 -10 11 -23 30 -30 43 -6 12 -18 21 -27 21
-11 -1 -20 13 -28 43 -7 24 -20 48 -30 53 -9 5 -25 31 -35 57 -10 26 -26 59
-37 72 -10 13 -18 34 -18 48 0 13 -6 26 -14 29 -8 3 -12 13 -9 23 2 10 -2 25
-11 33 -8 9 -12 18 -9 22 4 3 2 6 -4 6 -6 0 -11 6 -10 13 1 47 -4 69 -17 64
-19 -7 -48 86 -57 183 -4 41 -12 95 -19 120 -8 30 -10 99 -7 210 5 176 5 172
48 268 33 70 35 85 16 101 -17 14 -10 65 14 106 11 16 19 43 19 58 0 16 4 26
9 23 10 -6 23 33 15 46 -9 14 -18 9 -54 -31z"/>
<path d="M9429 10720 c-13 -16 -32 -29 -41 -30 -12 0 -18 -8 -18 -25 0 -25
-18 -30 -32 -10 -4 5 -10 1 -14 -10 -13 -37 -69 -104 -87 -105 -10 0 -22 -11
-27 -24 -4 -13 -21 -33 -37 -45 -52 -41 -143 -155 -155 -196 -14 -48 -49 -100
-95 -139 -19 -16 -46 -47 -60 -69 -49 -77 -133 -227 -133 -236 0 -5 -14 -19
-30 -31 -22 -16 -54 -24 -117 -30 -60 -5 -90 -12 -98 -23 -10 -14 -13 -15 -27
-1 -8 8 -30 16 -49 16 -43 1 -93 33 -208 131 -24 20 -49 37 -56 37 -7 0 -39
18 -71 40 -66 45 -88 52 -56 17 12 -13 22 -35 22 -50 0 -15 4 -27 10 -27 5 0
28 -18 51 -41 22 -22 47 -38 53 -36 7 3 19 1 27 -5 11 -7 11 -11 1 -15 -10 -4
-10 -8 -1 -19 6 -8 16 -11 21 -8 5 3 12 -3 15 -15 3 -12 11 -21 19 -21 8 0 11
6 8 15 -4 8 -2 15 2 15 15 0 74 -60 74 -74 0 -8 10 -17 23 -21 19 -6 19 -8 5
-12 -10 -2 -18 -8 -18 -13 0 -5 7 -7 15 -4 10 4 15 0 15 -12 0 -11 5 -26 10
-34 8 -12 12 -13 19 -2 6 10 13 2 25 -29 10 -23 26 -53 36 -67 11 -13 17 -28
14 -33 -3 -5 2 -16 10 -25 9 -8 16 -26 16 -40 0 -14 7 -27 15 -30 8 -4 13 -9
10 -14 -2 -4 7 -22 21 -41 15 -19 40 -63 58 -99 17 -36 36 -72 41 -80 24 -36
85 -196 85 -220 0 -15 6 -48 14 -73 13 -44 12 -51 -6 -48 -5 0 -8 -14 -8 -33
0 -26 5 -36 20 -41 11 -4 18 -11 14 -16 -3 -5 -10 -7 -15 -4 -5 4 -9 2 -9 -4
0 -5 4 -12 8 -15 13 -8 7 -129 -6 -134 -7 -2 -12 -8 -12 -14 0 -6 7 -8 15 -4
18 7 18 5 2 -28 -8 -14 -17 -23 -20 -19 -4 3 -7 2 -7 -4 0 -6 7 -14 16 -17 13
-5 12 -9 -5 -27 -16 -18 -19 -34 -18 -106 0 -60 -3 -87 -12 -93 -8 -4 -11 -12
-7 -18 3 -6 2 -13 -3 -17 -6 -3 -8 -12 -4 -20 3 -8 0 -15 -5 -15 -6 0 -14 -16
-18 -35 -3 -19 -11 -35 -16 -35 -5 0 -9 -15 -8 -32 3 -55 1 -70 -11 -63 -6 4
-9 1 -8 -6 5 -23 -12 -109 -20 -109 -5 0 -21 25 -36 55 -16 30 -31 55 -35 55
-12 0 -63 107 -58 122 6 14 -47 121 -81 164 -12 15 -21 33 -21 41 0 7 -7 16
-15 19 -8 4 -15 14 -15 23 0 9 -7 25 -15 35 -8 10 -12 23 -9 28 4 5 -5 22 -19
36 -14 15 -34 46 -46 70 -12 23 -27 42 -34 42 -12 1 -97 129 -97 148 0 5 -6
12 -14 15 -8 3 -24 27 -35 53 -23 51 -26 68 -11 59 15 -9 12 11 -4 24 -7 6
-20 9 -28 6 -15 -6 -32 25 -29 52 1 8 -5 10 -14 7 -25 -10 -17 16 10 28 22 10
24 15 19 52 -5 31 0 55 18 96 27 60 84 130 105 130 16 0 55 -21 65 -35 4 -6 8
-2 8 8 0 13 9 17 40 17 22 0 40 -4 40 -10 0 -5 6 -10 13 -10 8 0 22 -9 32 -20
10 -12 25 -18 34 -15 8 3 18 0 23 -7 5 -9 8 -4 8 14 0 19 -11 35 -39 57 -21
17 -46 31 -54 31 -8 0 -17 7 -21 15 -3 8 -12 15 -20 15 -7 0 -16 7 -20 15 -3
8 -14 15 -25 15 -10 0 -21 7 -25 15 -3 8 -13 15 -22 15 -11 0 -15 6 -11 20 4
15 0 20 -14 20 -10 0 -19 -5 -19 -11 0 -5 -5 -7 -10 -4 -6 4 -8 10 -5 15 3 5
-7 18 -21 29 -15 12 -24 24 -21 27 3 3 -15 22 -41 41 -26 20 -63 50 -82 68
-19 18 -45 38 -57 44 -13 7 -23 18 -23 25 0 20 -35 47 -53 40 -15 -5 -42 28
-31 39 3 3 -9 16 -26 28 -17 13 -40 38 -51 56 -11 18 -29 35 -39 38 -17 5
-248 253 -307 328 -11 15 -30 27 -40 27 -11 0 -31 13 -46 28 -31 33 -37 54 -7
27 11 -10 20 -14 20 -9 0 8 -133 153 -227 248 -15 16 -27 33 -25 38 5 18 -27
38 -62 38 -44 0 -45 -10 -6 -43 17 -14 30 -30 30 -36 0 -6 6 -11 14 -11 16 0
46 -42 46 -65 0 -12 6 -15 20 -10 14 4 20 2 20 -8 0 -9 4 -17 8 -19 4 -1 21
-21 37 -43 17 -22 36 -44 42 -48 7 -4 13 -17 13 -27 0 -13 7 -20 20 -20 13 0
18 -5 14 -15 -4 -8 1 -17 10 -21 9 -3 16 -14 16 -23 1 -25 26 -65 34 -53 8 14
24 -1 83 -78 24 -30 47 -60 53 -67 5 -7 10 -19 10 -28 0 -8 9 -15 20 -15 11 0
20 -7 20 -15 0 -9 7 -18 15 -21 8 -4 15 -14 15 -23 0 -10 11 -28 24 -40 13
-13 27 -34 30 -47 4 -13 11 -24 16 -24 6 0 10 -9 10 -20 0 -14 6 -20 16 -18
28 5 58 -66 60 -144 2 -62 0 -70 -26 -98 -15 -16 -32 -30 -37 -30 -6 0 -20 -9
-33 -20 -25 -22 -45 -26 -55 -10 -3 6 -1 10 4 10 6 0 11 4 11 9 0 5 -19 12
-42 16 -59 10 -112 39 -138 75 -23 32 -50 40 -50 14 0 -11 -6 -14 -20 -9 -11
3 -20 2 -20 -3 0 -9 28 -22 54 -26 5 0 12 -10 17 -21 4 -11 8 -14 8 -7 1 6 4
12 9 12 10 0 82 -65 82 -75 0 -16 123 -126 136 -121 13 5 38 -17 28 -26 -2 -3
9 -20 26 -37 17 -17 29 -35 25 -41 -3 -5 1 -20 9 -32 16 -26 24 -71 31 -173 3
-38 8 -99 12 -135 4 -36 7 -90 7 -120 -1 -30 3 -57 7 -60 10 -7 19 -170 9
-170 -8 0 -12 15 -26 93 -3 20 -11 37 -16 37 -5 0 -7 -8 -4 -17 5 -20 22 -310
18 -333 -4 -28 -3 -165 2 -265 9 -201 18 -361 22 -390 10 -69 1 -270 -16 -380
-6 -38 -6 -63 0 -69 6 -6 10 -17 10 -26 0 -13 -2 -13 -11 0 -8 11 -9 3 -5 -33
5 -45 5 -47 -14 -37 -10 5 -22 15 -25 20 -9 14 -79 12 -93 -2 -9 -9 -21 -3
-52 27 -39 38 -40 38 -40 15 0 -24 -1 -24 -19 6 -11 18 -25 35 -31 39 -20 13
0 -36 31 -76 16 -20 29 -46 29 -57 0 -11 11 -30 25 -43 13 -13 25 -29 25 -36
0 -6 22 -38 50 -70 27 -32 50 -61 50 -66 0 -4 14 -26 30 -49 19 -26 30 -53 30
-74 0 -18 8 -40 17 -50 11 -11 14 -19 7 -21 -8 -3 -6 -25 7 -75 11 -40 19 -80
19 -90 0 -10 4 -18 8 -18 5 0 9 -13 9 -30 0 -16 -4 -30 -8 -30 -9 0 -1 -73 12
-107 5 -13 6 -29 3 -34 -7 -12 27 -109 38 -109 5 0 14 13 19 30 13 37 27 31
21 -9 -2 -16 1 -37 7 -48 9 -16 10 -15 11 10 0 15 5 27 11 27 7 0 9 11 4 33
-10 45 -12 178 -2 184 4 2 7 16 7 30 0 50 24 148 40 161 13 11 13 14 -3 26
-12 10 -17 24 -15 43 2 23 0 27 -16 25 -17 -3 -18 -1 -7 12 7 8 16 15 19 14
21 -2 32 4 32 17 0 8 4 15 9 15 5 0 11 18 15 40 6 40 19 51 30 28 3 -7 3 6 0
28 -7 56 9 81 50 77 24 -3 28 -2 15 6 -9 6 -20 23 -23 37 -4 15 -10 24 -13 20
-8 -7 -37 53 -34 71 1 6 -3 14 -8 17 -5 3 -7 15 -4 26 4 14 0 20 -11 20 -16 0
-20 11 -16 39 1 8 -4 17 -10 21 -6 4 -13 24 -15 46 -2 21 -9 66 -15 99 -12 74
-13 95 -1 95 5 0 9 -10 9 -22 0 -13 4 -43 9 -68 8 -35 11 -1 12 160 1 113 2
218 2 234 -6 470 -5 606 5 606 7 0 17 -21 24 -47 6 -27 20 -61 30 -78 10 -16
33 -58 50 -93 17 -35 54 -98 81 -140 47 -72 130 -233 195 -379 15 -35 33 -63
41 -63 7 0 13 -5 13 -11 0 -5 -4 -7 -10 -4 -15 9 -11 -16 6 -45 14 -24 15 -24
11 -2 -3 14 0 22 8 22 24 0 35 -181 19 -327 -6 -57 -17 -65 -44 -33 -29 33
-170 68 -201 49 -11 -6 -11 -11 -1 -21 6 -6 12 -25 12 -40 0 -15 5 -28 11 -28
6 0 9 -6 6 -12 -6 -19 30 -66 64 -83 17 -9 31 -27 35 -43 4 -15 12 -33 17 -41
12 -14 12 -15 26 -79 8 -43 21 -67 21 -42 0 23 36 -23 49 -62 7 -20 19 -42 27
-48 7 -7 14 -19 14 -26 0 -8 5 -14 11 -14 7 0 9 -11 5 -30 -3 -18 -2 -29 4
-25 11 7 30 -26 46 -77 8 -27 9 -38 1 -41 -7 -2 -2 -31 16 -83 15 -43 36 -106
46 -139 10 -33 25 -73 31 -90 7 -16 12 -38 11 -49 -2 -12 1 -16 10 -11 9 6 10
28 4 84 -5 42 -7 123 -6 180 0 57 -3 109 -8 115 -10 13 -11 426 0 426 7 0 8
16 10 88 0 17 4 32 8 32 4 0 8 19 9 43 1 34 0 38 -8 20 -5 -13 -12 -23 -15
-23 -9 0 6 73 17 87 5 7 7 17 3 23 -4 6 3 40 14 75 12 35 21 71 21 80 0 9 8
24 17 33 15 16 16 15 9 -13 -5 -20 -4 -27 3 -20 14 15 27 70 13 61 -6 -3 -13
-2 -16 3 -4 5 -2 12 4 16 5 3 10 17 10 31 0 13 5 24 11 24 5 0 7 5 4 10 -3 6
-1 10 6 10 7 0 9 3 6 6 -3 4 0 16 8 28 8 11 15 29 15 39 0 10 5 15 10 12 6 -3
10 4 10 18 0 33 50 133 59 119 9 -16 42 58 43 98 1 16 5 27 9 24 9 -5 49 80
49 106 0 9 9 25 20 35 11 10 20 27 20 38 0 12 9 30 19 41 48 52 95 483 69 636
-12 73 -31 152 -46 191 -6 15 -15 69 -21 120 -6 52 -15 117 -21 144 -6 28 -11
63 -10 79 0 16 -6 34 -15 40 -12 8 -16 42 -21 151 -3 77 -5 167 -3 200 1 33 2
75 2 93 0 17 5 32 11 32 6 0 12 23 14 51 1 33 12 72 30 108 16 31 27 62 25 69
-3 7 4 12 16 12 17 0 21 6 21 30 0 17 4 30 9 30 5 0 12 12 16 27 3 15 11 30
16 34 5 3 11 15 14 27 2 12 11 34 19 49 20 38 30 66 27 78 -3 12 40 98 52 103
4 2 7 10 7 18 0 8 9 14 20 14 29 0 62 57 55 94 -4 22 -2 27 10 22 10 -4 14 1
13 17 -1 33 18 74 42 87 11 6 20 17 20 25 0 8 7 15 15 15 8 0 15 4 15 10 0 5
8 17 18 27 45 46 63 71 54 77 -5 3 -20 -8 -33 -24z"/>
<path d="M15166 10635 c-39 -62 -51 -92 -68 -172 -16 -80 -34 -126 -100 -258
-106 -210 -121 -232 -203 -287 -128 -87 -142 -91 -258 -83 -91 6 -100 5 -88
-9 11 -13 9 -16 -13 -22 -43 -10 -140 -10 -165 0 l-24 11 24 6 24 6 -28 12
c-38 15 -80 14 -75 -1 3 -7 22 -23 44 -36 l39 -24 -45 6 c-116 15 -175 18
-160 7 8 -6 33 -11 55 -11 35 -1 37 -2 17 -11 -47 -18 -18 -34 64 -34 132 0
287 -34 305 -66 5 -10 23 -20 39 -24 17 -4 29 -12 27 -18 -2 -7 0 -21 6 -31 8
-16 6 -18 -7 -13 -20 8 -22 -28 -2 -40 12 -7 11 -15 -2 -55 -8 -27 -19 -48
-23 -48 -5 0 -9 -6 -9 -14 0 -7 -7 -27 -15 -42 -8 -16 -15 -47 -15 -69 0 -22
-9 -58 -20 -80 -11 -22 -19 -50 -20 -63 0 -13 -7 -30 -15 -38 -19 -20 -19 -34
0 -34 14 0 43 40 73 100 30 59 93 149 105 150 4 0 11 -9 15 -20 7 -18 9 -18
40 11 18 17 30 35 26 40 -3 6 4 7 20 3 32 -8 35 3 4 15 l-22 8 22 12 c16 8 28
9 42 1 22 -12 27 -1 8 18 -18 18 14 25 61 12 66 -18 72 -35 56 -175 -15 -131
-21 -159 -54 -222 -31 -61 -80 -92 -137 -85 -27 3 -55 0 -68 -8 -19 -10 -39
-10 -97 0 -41 7 -78 15 -84 19 -5 4 -27 13 -49 20 -33 11 -40 11 -54 -3 -15
-15 -15 -16 5 -16 12 0 25 -4 28 -10 3 -5 1 -10 -4 -10 -6 0 -11 -4 -11 -10 0
-5 19 -9 43 -8 28 1 61 -7 99 -25 31 -15 61 -27 66 -27 5 0 15 -7 23 -16 10
-13 10 -17 -1 -24 -10 -6 -8 -13 9 -31 15 -16 20 -31 16 -44 -4 -11 -6 -32 -6
-47 1 -21 -6 -31 -29 -43 -16 -9 -30 -20 -30 -24 0 -5 -37 -21 -82 -36 -46
-15 -92 -31 -103 -35 -32 -15 -127 -47 -157 -54 -28 -6 -40 8 -15 17 6 3 2 6
-10 6 -14 1 -23 -5 -23 -14 0 -8 -5 -15 -11 -15 -6 0 -18 -7 -26 -16 -9 -8
-19 -12 -22 -7 -7 9 -91 14 -91 5 0 -4 36 -43 79 -87 43 -44 107 -123 142
-175 74 -111 81 -144 73 -335 -4 -98 -9 -352 -13 -645 -1 -38 -3 -42 -15 -30
-27 29 -101 169 -92 177 2 3 16 -18 30 -46 15 -28 31 -51 37 -51 13 0 -76 166
-114 209 -17 20 -27 41 -24 52 3 13 0 19 -11 19 -8 0 -12 3 -9 6 4 4 -2 19
-13 34 -11 16 -20 33 -20 39 0 6 -6 11 -12 11 -21 1 -93 160 -90 196 2 23 -2
36 -18 47 -11 8 -31 42 -45 77 -14 35 -32 74 -40 86 -8 13 -18 51 -22 85 -6
61 -6 61 18 54 13 -4 35 -14 47 -22 13 -8 26 -12 29 -9 12 12 -8 36 -47 56
-38 19 -41 24 -34 48 4 15 7 37 7 49 -1 14 3 20 10 16 6 -4 8 0 4 11 -8 19 24
191 41 223 7 12 12 29 12 37 0 9 14 44 30 78 17 34 28 68 26 75 -3 7 0 13 7
13 10 0 60 76 78 120 4 9 0 25 -8 35 -14 20 -15 20 -29 0 -39 -53 -64 -98 -64
-113 0 -10 -8 -25 -17 -34 -33 -29 -138 -151 -162 -186 -22 -33 -88 -117 -204
-262 -77 -96 -162 -179 -199 -194 -18 -8 -45 -25 -60 -39 -15 -14 -29 -23 -31
-20 -3 2 -23 -7 -44 -21 -34 -22 -50 -26 -131 -27 -92 -2 -102 -5 -80 -27 8
-8 5 -16 -13 -31 l-24 -19 62 5 c67 6 123 -9 123 -33 0 -8 8 -14 18 -14 18 0
108 -99 122 -135 5 -11 12 -29 16 -40 20 -52 30 -183 23 -308 -5 -73 -6 -291
-4 -484 6 -562 -14 -909 -50 -876 -4 5 -5 -2 -2 -14 4 -19 1 -23 -18 -23 -35
0 -106 28 -121 48 -7 9 -15 29 -18 45 -3 15 -10 27 -16 27 -17 0 -33 20 -54
68 -11 23 -22 42 -25 42 -10 0 -36 64 -33 82 2 10 -6 19 -20 23 -13 4 -33 17
-45 28 -28 25 -29 13 -3 -31 11 -18 20 -46 20 -62 0 -17 4 -30 10 -30 5 0 14
-18 20 -40 6 -21 15 -42 20 -45 6 -3 10 -15 10 -26 0 -10 3 -19 8 -19 7 0 26
-48 41 -108 5 -18 27 -63 48 -100 22 -37 49 -92 60 -122 11 -30 26 -71 33 -90
27 -74 104 -324 115 -374 3 -16 6 -58 6 -94 0 -35 5 -76 10 -90 6 -15 17 -58
25 -96 11 -54 12 -71 2 -77 -9 -6 -8 -20 5 -61 12 -38 18 -106 22 -233 3 -99
8 -187 10 -195 2 -8 9 -73 15 -145 7 -82 16 -135 25 -145 8 -8 17 -50 21 -93
6 -70 5 -77 -11 -77 -17 0 -16 -2 3 -23 12 -13 22 -28 22 -34 0 -7 9 -15 20
-18 11 -3 20 -11 20 -16 0 -5 5 -9 11 -9 7 0 8 7 4 18 -3 9 -13 53 -22 97 -20
109 -31 828 -13 850 7 9 12 46 12 92 0 101 24 302 45 375 13 47 20 57 43 61
l27 6 -1 113 c-1 108 0 113 22 123 12 5 22 14 22 20 0 13 65 81 97 102 16 11
23 23 20 35 -5 17 3 22 29 19 7 -1 15 10 18 24 8 32 21 32 50 0 13 -14 28 -25
35 -25 17 0 13 27 -7 42 -28 20 -52 60 -52 85 0 14 -6 23 -15 23 -8 0 -15 5
-15 11 0 6 -7 8 -16 5 -19 -7 -47 12 -38 26 4 6 2 13 -3 17 -6 3 -21 24 -35
47 -43 68 -67 174 -77 349 -22 347 -35 795 -23 795 8 0 8 5 -3 176 -5 71 -4
113 2 117 7 4 7 27 1 64 -5 31 -8 84 -6 117 l3 61 89 -180 c139 -282 222 -477
260 -609 10 -33 40 -109 67 -170 28 -61 59 -142 70 -181 47 -160 77 -288 72
-302 -3 -8 -16 -19 -30 -24 -13 -5 -27 -19 -32 -31 -5 -13 -18 -31 -29 -41
-19 -17 -21 -17 -58 3 -22 12 -56 35 -76 51 -20 16 -43 26 -51 23 -8 -3 -25 8
-40 25 -23 28 -74 45 -65 22 2 -5 69 -78 150 -162 81 -85 161 -175 177 -201
17 -26 39 -53 51 -60 11 -7 20 -20 20 -29 0 -9 16 -31 36 -48 56 -50 148 -237
164 -336 16 -97 16 -265 0 -275 -7 -5 -9 -24 -4 -58 4 -29 2 -57 -3 -64 -18
-25 -32 -94 -37 -183 -4 -93 -15 -129 -72 -253 -19 -40 -34 -84 -34 -97 0 -14
-13 -47 -30 -73 -16 -27 -33 -64 -36 -83 -5 -33 -5 -33 11 -14 9 11 28 42 42
69 30 59 44 74 62 68 8 -3 12 1 9 9 -3 8 1 19 7 24 7 6 22 37 35 70 13 33 29
67 36 76 17 20 104 238 104 262 0 9 6 17 13 17 8 0 12 14 12 39 0 44 12 63 25
41 8 -13 10 -12 14 0 10 32 24 187 19 216 -3 21 1 41 13 60 14 20 15 29 6 32
-14 4 -16 62 -2 62 16 0 12 21 -6 35 -13 9 -15 20 -7 66 l9 54 29 -90 c15 -49
32 -91 37 -93 4 -2 8 -11 8 -20 1 -9 7 -28 15 -42 14 -25 14 -25 15 -2 0 12
-7 39 -16 60 -41 96 -76 224 -83 307 -5 50 -17 117 -27 150 -16 50 -19 89 -17
230 2 132 -1 175 -12 191 -27 41 -19 171 18 314 13 52 30 122 37 155 8 33 16
62 20 65 12 10 40 60 40 71 0 6 9 24 21 40 13 19 18 36 13 47 -7 16 -7 16 -11
0 -3 -10 -9 -18 -14 -18 -14 0 -10 30 5 36 8 3 22 35 31 72 10 37 24 86 31
110 17 51 17 62 4 62 -5 0 -10 -7 -10 -15 0 -9 -10 -26 -23 -38 -13 -12 -39
-45 -59 -72 -20 -28 -45 -59 -57 -69 -11 -10 -23 -31 -26 -46 -3 -16 -13 -34
-21 -41 -12 -9 -14 -7 -15 17 0 16 -3 49 -6 74 -7 64 -6 558 2 570 3 5 1 10
-5 10 -7 0 -9 8 -5 20 4 12 8 77 10 145 3 129 22 265 37 265 5 0 6 -11 2 -25
-4 -15 -2 -25 5 -25 10 0 17 64 12 118 -1 16 13 37 44 67 25 24 45 50 45 58 0
14 126 136 174 170 14 10 26 26 26 35 0 10 18 40 41 67 45 55 74 74 45 31 -10
-15 -15 -30 -12 -34 3 -3 7 -3 9 -1 2 2 20 25 41 51 21 26 35 51 32 56 -9 16
43 82 65 82 14 0 19 5 16 14 -3 7 -2 17 3 22 4 5 17 25 27 44 11 19 34 61 52
93 32 59 50 150 31 162 -9 5 -5 53 7 85 4 10 9 5 14 -15 5 -19 7 -1 4 50 -2
44 -8 93 -14 108 -6 16 -11 44 -11 62 0 20 -10 50 -25 71 -13 20 -27 51 -31
70 -3 19 -14 39 -23 44 -15 9 -15 9 1 10 9 0 24 7 32 16 21 20 21 41 1 24 -12
-10 -16 -9 -22 6 -3 11 -17 35 -29 54 -32 49 -62 186 -67 307 -3 56 -8 106
-11 111 -12 20 14 110 46 154 10 14 10 24 1 48 -6 16 -7 30 -2 30 5 0 9 7 9
16 0 10 6 14 14 11 15 -6 30 42 20 68 -3 8 8 39 25 68 17 30 28 56 25 60 -3 3
4 24 16 46 16 32 18 46 10 61 -6 11 -14 20 -19 20 -4 0 -29 -34 -55 -75z
m-157 -1345 c26 0 -11 -96 -49 -127 -19 -16 -33 -16 -24 -1 4 6 8 39 9 74 3
76 10 91 34 70 10 -9 23 -16 30 -16z"/>
<path d="M14435 10641 c-11 -5 -58 -43 -105 -86 -47 -42 -97 -88 -112 -102
-16 -14 -28 -31 -28 -39 0 -22 -43 -76 -50 -64 -4 6 -19 -7 -34 -29 -17 -24
-33 -38 -41 -34 -9 3 -17 -5 -21 -21 -3 -14 -10 -26 -14 -26 -5 0 -12 -9 -15
-20 -4 -11 -26 -40 -51 -64 -24 -24 -44 -48 -44 -53 0 -6 -9 -18 -20 -28 -11
-10 -20 -24 -20 -31 0 -7 -8 -21 -19 -31 -24 -24 -101 -120 -126 -158 -23 -36
-185 -356 -204 -405 -15 -36 -21 -58 -41 -145 -7 -27 -16 -54 -21 -59 -5 -6
-9 -18 -9 -27 0 -10 -7 -25 -16 -34 -9 -9 -14 -19 -11 -22 4 -3 0 -18 -8 -33
-19 -36 -45 -203 -50 -315 -2 -50 -11 -111 -20 -135 -9 -25 -19 -57 -22 -72
-3 -16 -9 -28 -13 -28 -5 0 -6 -8 -3 -18 2 -10 -3 -24 -11 -31 -9 -8 -16 -24
-16 -37 0 -13 -6 -32 -14 -41 -8 -10 -40 -56 -70 -102 -42 -63 -54 -89 -50
-107 6 -25 -10 -34 -20 -11 -5 10 -7 10 -12 0 -3 -7 -10 -13 -15 -13 -14 0
-11 72 5 116 14 40 28 122 31 184 2 48 23 128 45 172 10 21 15 40 11 43 -8 4
9 96 28 150 21 61 51 181 51 202 0 12 4 24 9 27 10 7 47 120 82 254 13 47 27
82 35 82 10 0 37 63 55 130 2 8 7 17 10 20 3 3 20 41 38 85 19 44 44 100 57
125 13 25 24 50 24 56 0 5 9 28 19 50 10 21 25 59 32 84 7 25 18 52 24 60 7 8
10 21 8 28 -3 6 0 12 6 12 11 0 25 28 37 75 11 43 -11 27 -47 -34 -18 -33 -42
-62 -53 -65 -12 -3 -16 -10 -13 -20 4 -10 1 -16 -8 -16 -8 0 -15 -7 -15 -15 0
-8 -4 -15 -9 -15 -6 0 -38 -42 -72 -92 -34 -51 -69 -102 -78 -113 -10 -11 -22
-31 -28 -45 -6 -14 -26 -45 -44 -70 -56 -73 -79 -116 -79 -145 0 -15 -9 -40
-20 -55 -11 -16 -27 -45 -36 -66 -21 -51 -26 -38 -9 26 17 63 18 80 7 80 -5 0
-17 -37 -27 -82 -10 -46 -23 -86 -27 -89 -5 -3 -8 -10 -7 -15 2 -5 -7 -29 -19
-54 -54 -116 -149 -350 -182 -450 -35 -110 -77 -180 -106 -180 -7 0 -18 -9
-24 -20 -6 -11 -26 -26 -45 -34 -18 -8 -38 -24 -45 -35 -6 -12 -20 -21 -30
-21 -26 0 -25 -12 4 -63 27 -47 66 -207 66 -269 0 -22 -4 -57 -9 -77 -5 -20
-14 -63 -19 -96 -32 -189 -57 -295 -69 -290 -7 2 -13 -2 -13 -10 0 -8 4 -15 9
-15 5 0 5 -18 0 -42 -16 -71 -42 -138 -55 -138 -7 0 -18 -16 -24 -36 -15 -45
-24 -36 -45 44 -8 34 -21 75 -27 90 -6 15 -11 46 -12 69 -1 23 -8 48 -14 56
-8 10 -10 38 -6 88 3 41 8 137 10 214 7 219 8 225 22 225 7 0 15 14 19 30 3
17 14 35 24 40 13 7 18 21 17 49 0 24 8 51 19 68 11 15 37 75 58 133 21 58 41
107 44 110 21 18 50 120 34 120 -10 0 -33 -40 -85 -145 -73 -148 -161 -297
-185 -312 -13 -8 -23 -21 -23 -29 0 -7 -9 -18 -20 -24 -11 -6 -20 -17 -20 -25
0 -23 -77 -130 -113 -157 -17 -14 -51 -35 -74 -46 -38 -20 -44 -20 -70 -7 -28
15 -63 20 -63 9 0 -14 22 -44 33 -44 23 -1 80 -82 93 -134 6 -28 19 -71 28
-95 l16 -44 -40 -103 c-22 -56 -45 -125 -52 -153 -6 -28 -15 -51 -18 -51 -10
0 -24 97 -21 134 1 15 -6 54 -17 85 -10 31 -27 79 -37 106 -35 103 -58 185
-85 319 -12 55 -25 106 -29 115 -15 28 -24 104 -12 97 7 -4 11 1 11 13 0 12
-4 21 -10 21 -18 0 -11 104 11 168 11 34 25 62 30 62 5 0 7 11 3 25 -5 19 -2
25 10 25 9 0 16 -4 16 -10 0 -5 7 -10 17 -10 9 0 13 3 10 7 -4 3 -2 12 4 20 9
10 7 13 -10 13 -15 0 -21 6 -21 21 0 12 -10 37 -21 56 -16 26 -24 31 -30 21
-7 -10 -9 -9 -9 5 0 9 -3 17 -8 17 -4 0 -18 18 -32 41 -14 23 -34 45 -45 49
-18 8 -18 9 -2 9 28 1 9 21 -19 21 -15 0 -27 7 -30 18 -14 41 -29 62 -42 57
-9 -3 -12 1 -7 15 4 11 2 20 -4 20 -6 0 -11 6 -11 14 0 7 -7 19 -15 26 -9 7
-14 19 -11 26 3 7 1 16 -3 19 -5 2 -27 40 -49 83 -22 43 -56 104 -77 136 -20
32 -43 73 -51 92 -26 61 -48 30 -23 -33 6 -15 19 -76 30 -135 10 -59 21 -119
25 -132 3 -14 2 -31 -2 -38 -12 -19 -15 -95 -3 -77 7 9 7 1 3 -25 -4 -26 -3
-37 3 -33 6 4 13 -6 15 -23 3 -17 2 -30 -2 -30 -3 0 -5 -61 -4 -135 2 -81 -1
-135 -6 -135 -6 0 -10 -20 -10 -45 0 -56 -16 -134 -41 -205 -19 -50 -33 -202
-21 -215 3 -3 12 1 20 8 13 10 15 9 8 -8 -18 -45 -16 -49 7 -21 21 25 27 27
46 16 13 -6 29 -9 36 -6 21 8 75 -60 75 -93 0 -16 7 -31 15 -35 8 -3 15 -18
15 -34 0 -15 5 -33 10 -38 6 -6 11 -26 11 -45 2 -80 38 -218 40 -153 0 18 0
18 8 -1 14 -35 22 -90 12 -80 -5 6 -11 19 -14 30 -3 14 -5 11 -5 -10 -2 -45
45 -247 58 -255 9 -5 9 -9 1 -11 -11 -4 13 -111 73 -324 14 -49 26 -93 26 -97
0 -23 -94 8 -133 43 -25 23 -85 54 -92 48 -3 -3 29 -41 70 -84 56 -58 74 -83
69 -97 -3 -12 2 -25 15 -36 29 -25 56 -79 71 -142 7 -30 16 -64 21 -75 5 -11
16 -54 25 -95 8 -41 18 -86 21 -100 3 -14 5 -41 5 -62 -1 -23 4 -38 13 -42 8
-3 12 -12 9 -19 -6 -18 42 -126 102 -228 25 -43 47 -88 49 -101 3 -12 11 -28
19 -33 23 -17 66 -87 66 -106 0 -11 5 -19 11 -19 11 0 118 -109 119 -121 0 -9
-45 -106 -70 -148 -11 -19 -17 -37 -13 -40 3 -3 8 0 10 7 3 6 12 12 22 12 10
0 25 15 35 38 10 20 24 47 32 60 l15 23 30 -37 c16 -20 29 -42 29 -49 0 -11
41 -45 55 -45 8 0 -33 78 -45 85 -6 3 -20 25 -31 47 l-20 40 20 22 c12 12 21
27 21 33 0 6 7 16 15 23 8 7 13 16 10 20 -2 4 5 17 16 29 12 12 18 29 15 37
-4 11 0 13 17 9 30 -8 64 38 78 107 6 29 20 69 31 88 24 42 61 167 53 181 -4
5 1 9 9 9 20 0 18 -12 21 155 3 183 14 282 31 289 8 3 14 17 14 32 0 14 9 37
20 51 11 14 20 34 20 44 0 30 11 49 31 49 15 0 18 7 17 43 -1 23 8 65 19 94
13 32 17 53 11 55 -7 3 -7 16 1 41 17 52 8 69 -14 27 -25 -48 -26 -49 -104
-41 -10 1 -12 12 -8 44 23 163 28 191 38 203 6 8 9 20 6 27 -8 22 29 171 57
226 28 56 33 91 14 91 -7 0 -4 6 5 13 11 8 18 32 22 67 2 30 10 78 16 105 6
28 13 61 15 75 3 26 24 136 30 157 2 7 10 10 19 7 18 -7 55 22 55 43 0 13 31
18 43 7 3 -4 0 -16 -8 -28 -20 -28 -19 -46 4 -46 13 0 24 11 32 35 7 19 18 35
24 35 17 0 48 37 41 49 -3 5 -3 11 2 13 4 1 18 20 31 41 12 20 33 40 47 43 13
3 22 10 19 14 -7 12 57 82 182 200 17 17 40 30 50 30 11 0 28 7 39 15 18 14
18 14 -6 15 -16 1 -19 4 -10 7 8 3 42 34 75 69 51 53 166 140 208 157 9 4 8 8
-3 16 -16 11 -15 12 30 15 32 2 107 38 118 57 11 17 9 19 -10 19 -37 -1 -112
-24 -141 -43 -32 -21 -42 -21 -42 -3 0 7 -19 31 -41 52 -23 22 -44 50 -48 62
-4 12 -15 22 -25 22 -30 0 -28 143 4 265 15 55 32 125 40 155 12 53 25 93 45
135 5 11 14 38 21 59 6 22 22 58 35 80 13 23 41 77 63 120 22 43 62 106 88
139 26 33 55 69 63 81 8 12 29 38 47 59 18 20 33 46 33 57 0 25 39 80 56 80
11 0 64 69 64 83 0 22 146 170 159 162 7 -3 11 3 11 14 0 12 -6 21 -12 21 -7
1 -1 8 15 16 15 8 27 19 27 25 0 5 11 14 25 19 32 12 33 40 3 39 -13 0 -32 -4
-43 -8z m-2070 -3539 c6 14 12 11 38 -20 18 -20 38 -42 45 -48 12 -8 11 -12 0
-22 -19 -16 -15 -162 5 -177 7 -5 19 -28 25 -50 6 -22 20 -71 32 -110 11 -38
22 -101 25 -140 3 -38 10 -107 16 -152 10 -65 9 -85 0 -97 -9 -10 -11 -29 -6
-56 4 -23 3 -46 -3 -53 -11 -14 -34 -146 -26 -158 2 -4 -1 -11 -7 -14 -6 -5
-9 -29 -6 -66 5 -53 3 -61 -17 -74 -12 -8 -28 -30 -35 -50 -7 -19 -15 -35 -19
-35 -10 0 -60 78 -84 130 -51 111 -58 133 -47 147 9 10 8 22 -3 51 -35 85 -61
190 -54 223 3 19 8 70 10 114 5 127 16 215 37 290 10 39 21 81 23 95 2 14 5
25 7 25 1 0 3 20 3 44 2 29 8 46 19 53 24 13 21 27 -9 38 -23 9 -25 13 -18 43
5 17 8 48 7 67 l-2 35 19 -25 c16 -22 20 -23 25 -8z"/>
<path d="M15563 10498 c2 -7 13 -39 22 -70 10 -31 22 -55 26 -53 8 5 20 -20
24 -50 2 -11 24 -70 49 -131 25 -61 58 -158 75 -215 16 -57 38 -129 50 -160
49 -133 65 -325 33 -386 -6 -11 -16 -60 -22 -109 -18 -142 -59 -274 -85 -274
-7 0 -15 -8 -19 -17 -9 -28 -25 -47 -126 -151 -52 -54 -127 -131 -165 -172
-39 -41 -109 -109 -155 -150 -115 -101 -242 -234 -237 -249 2 -8 -140 -141
-151 -141 -5 0 -40 -27 -77 -60 -37 -33 -71 -60 -75 -60 -4 0 -12 -11 -18 -25
-7 -14 -18 -25 -25 -23 -17 4 -77 -40 -77 -58 0 -8 4 -14 9 -14 26 0 120 37
149 58 29 22 45 25 145 29 114 3 177 22 177 50 0 9 17 13 53 14 163 3 256 1
289 -7 53 -13 128 -73 233 -184 458 -487 504 -537 596 -655 43 -55 89 -113
104 -129 14 -17 28 -41 31 -55 3 -14 10 -36 17 -48 21 -38 197 -295 260 -377
32 -44 73 -105 90 -135 17 -31 35 -57 39 -59 4 -2 8 -10 8 -18 0 -8 11 -19 25
-24 26 -10 65 -76 65 -110 0 -11 16 -44 35 -72 19 -29 51 -94 71 -145 36 -94
64 -122 64 -65 0 24 3 22 28 -23 15 -27 34 -66 41 -85 8 -19 24 -57 36 -85 63
-143 68 -160 73 -255 4 -94 4 -95 -34 -171 -22 -41 -50 -99 -64 -129 -26 -54
-98 -125 -129 -125 -11 0 -15 -8 -14 -22 2 -15 -5 -27 -20 -34 -12 -7 -38 -25
-57 -41 -34 -28 -60 -36 -60 -19 0 14 -48 67 -192 210 -153 152 -173 174 -188
206 -24 50 -33 60 -40 39 -5 -14 -12 -9 -38 28 -17 25 -29 48 -25 51 3 4 -33
44 -81 91 -55 52 -83 86 -74 89 8 3 1 11 -20 23 -19 11 -59 39 -91 64 -31 25
-78 61 -104 80 -25 19 -47 40 -47 46 0 7 -20 21 -45 33 -25 12 -45 26 -45 31
0 6 -10 10 -22 10 -12 0 -18 3 -15 6 4 4 -8 14 -26 23 -17 9 -38 29 -47 44
-14 26 -14 29 5 45 12 9 24 24 27 33 7 17 237 109 271 108 21 0 21 -1 -2 -10
-56 -22 -91 -42 -91 -51 0 -6 10 -8 23 -5 35 8 179 58 215 74 18 8 49 17 68
20 43 7 44 22 2 25 -56 3 -63 4 -73 9 -6 4 -42 2 -81 -4 -54 -8 -85 -7 -132 3
-34 8 -62 18 -62 22 0 4 -16 8 -36 8 -29 0 -35 3 -30 16 5 13 1 15 -18 10 -38
-9 -128 14 -152 39 -11 12 -38 25 -60 29 -49 10 -285 135 -350 186 -98 78
-127 106 -180 176 -30 40 -60 74 -68 77 -7 3 -31 39 -52 81 -21 42 -43 76 -49
76 -23 0 -56 55 -54 90 4 68 -7 81 -28 33 -17 -42 -25 -85 -15 -79 6 3 12 -6
15 -19 3 -17 -1 -29 -12 -35 -10 -6 -11 -10 -3 -10 6 0 12 -5 12 -10 0 -6 -8
-10 -17 -8 -20 3 -21 -3 -26 -142 -4 -90 4 -176 23 -250 6 -25 16 -72 22 -105
16 -94 78 -280 132 -400 48 -104 66 -162 66 -207 0 -21 -15 -39 -70 -85 -39
-32 -83 -62 -98 -68 -31 -11 -103 -65 -86 -65 5 0 29 9 53 21 23 11 48 18 54
16 7 -2 0 -10 -15 -17 -16 -8 -28 -21 -28 -32 0 -20 11 -23 27 -7 6 6 21 12
34 14 13 2 37 7 52 11 17 4 38 1 53 -6 21 -12 27 -11 47 8 13 12 33 22 44 22
11 0 38 6 59 13 81 29 261 -14 377 -90 60 -38 252 -193 267 -215 3 -4 35 -38
70 -76 74 -79 179 -197 198 -223 10 -15 10 -25 -3 -55 -8 -20 -15 -49 -15 -64
0 -15 -8 -38 -19 -51 -17 -22 -21 -22 -62 -10 -24 7 -61 24 -82 39 l-39 26
-41 -22 c-23 -12 -55 -22 -72 -22 -29 0 -28 -1 20 -29 28 -16 69 -46 93 -66
41 -35 252 -341 252 -365 0 -7 6 -24 14 -38 18 -34 52 -128 61 -166 3 -16 10
-82 14 -147 5 -69 14 -125 21 -134 9 -11 11 -58 8 -185 -2 -94 -1 -170 4 -170
4 0 8 6 8 13 1 6 9 30 20 52 11 22 19 48 20 57 0 9 4 19 9 22 5 4 12 29 16 57
4 32 15 57 27 68 22 18 53 79 45 87 -9 9 21 84 41 102 11 9 25 36 32 59 8 25
21 45 32 48 19 7 25 25 7 25 -6 0 -1 14 11 31 12 16 28 28 35 25 8 -3 26 11
40 30 17 22 33 33 41 30 8 -3 24 0 35 7 17 10 23 8 52 -24 18 -19 50 -69 71
-109 37 -73 38 -76 31 -150 -4 -41 -11 -95 -16 -120 -5 -25 -14 -70 -20 -100
-13 -65 -19 -77 -29 -59 -15 24 -37 -9 -75 -114 -36 -97 -77 -161 -100 -154
-24 9 -80 -17 -115 -53 l-37 -37 -59 9 c-138 21 -262 67 -291 108 -8 11 -18
18 -23 15 -4 -3 -10 2 -13 9 -3 8 -1 16 6 19 9 3 9 9 0 28 -6 13 -12 18 -12
12 -2 -27 -19 -11 -39 35 -22 50 -52 86 -52 62 0 -7 -7 -10 -15 -6 -10 3 -15
-1 -15 -13 0 -10 7 -24 15 -31 8 -7 15 -16 15 -20 0 -4 18 -40 40 -80 22 -40
38 -76 35 -80 -3 -4 6 -27 19 -51 37 -68 111 -330 162 -579 24 -119 31 -342
11 -373 -9 -13 -17 -60 -20 -117 -4 -52 -11 -122 -16 -155 -5 -33 -10 -122
-10 -198 -1 -178 19 -273 128 -602 16 -49 34 -108 40 -130 6 -22 22 -53 36
-69 26 -30 28 -37 25 -73 -1 -13 3 -23 8 -23 11 0 30 -52 63 -180 12 -47 28
-94 35 -105 7 -11 29 -76 50 -145 20 -69 40 -129 44 -135 4 -5 11 -21 15 -35
16 -58 188 -390 201 -390 18 0 18 1 -10 54 -13 25 -20 48 -15 51 5 3 -2 23
-15 43 -13 20 -36 75 -51 122 -14 47 -30 92 -34 100 -4 8 -14 40 -21 70 -8 30
-17 60 -22 66 -4 6 -10 24 -12 40 -2 16 -9 49 -16 74 -6 25 -13 106 -15 181
-1 74 -7 145 -13 156 -18 33 -21 159 -6 221 16 70 17 75 4 67 -5 -3 -10 -15
-10 -26 0 -10 -3 -19 -7 -19 -5 0 -9 43 -11 96 -2 63 1 93 8 89 5 -3 10 0 10
7 0 7 3 24 7 37 4 16 2 22 -4 18 -6 -4 -13 -1 -15 6 -8 21 4 107 13 101 5 -3
9 5 9 18 0 84 18 180 38 201 18 20 82 193 82 221 0 6 10 47 24 91 13 44 36
132 51 195 21 87 41 140 85 225 32 60 64 134 71 163 7 28 16 52 21 52 4 0 8 8
8 19 0 10 6 24 14 30 8 7 17 23 20 36 4 14 10 25 15 25 18 0 41 32 41 57 0 32
70 245 85 258 26 22 65 203 65 298 0 50 4 77 11 77 7 0 8 7 3 18 -12 29 -13
406 0 414 8 5 8 13 -1 28 -16 25 -16 51 -1 87 7 15 17 53 23 83 6 32 16 54 23
53 6 -2 16 16 22 40 7 23 23 59 37 79 14 20 26 49 27 63 0 14 4 25 9 25 4 0 7
4 7 9 0 5 18 37 40 70 22 33 45 71 50 83 6 13 14 30 19 38 5 8 22 46 37 83 18
46 39 78 62 97 28 23 33 32 24 43 -9 10 -4 26 22 68 19 30 37 66 41 80 5 19
12 25 25 22 15 -4 18 5 24 64 9 82 25 133 41 127 9 -4 11 15 7 70 -3 57 -2 76
8 76 10 0 11 14 6 55 -3 32 -2 55 3 55 5 0 3 13 -5 29 -8 17 -20 56 -25 88 -6
32 -13 70 -16 86 -4 20 -1 27 11 27 9 0 16 4 16 9 0 14 54 -1 73 -20 10 -11
26 -19 35 -19 10 0 35 -16 56 -35 21 -19 42 -32 47 -30 4 3 12 -3 18 -12 20
-35 12 64 -10 123 -30 80 -83 156 -166 241 -38 39 -75 86 -82 105 -7 18 -24
57 -38 87 -20 41 -28 73 -31 137 -3 54 -1 84 6 84 5 0 8 9 5 21 -4 14 2 28 20
45 15 14 29 37 33 52 3 15 10 38 16 52 6 14 11 30 9 37 -1 7 9 24 21 39 13 15
28 32 33 38 6 7 23 26 39 44 39 42 18 42 -23 0 -35 -35 -40 -31 -14 13 18 30
45 45 62 34 5 -3 12 -1 16 5 3 5 17 10 31 10 24 0 34 15 14 22 -7 2 -5 16 6
37 14 28 14 35 2 47 -12 13 -26 3 -105 -75 -50 -49 -101 -92 -113 -96 -12 -4
-38 -18 -57 -30 -19 -13 -60 -31 -91 -40 -31 -8 -75 -24 -97 -34 -23 -10 -53
-17 -68 -16 -40 5 -115 70 -134 116 -13 33 -20 39 -44 39 -16 0 -28 3 -26 8 1
4 -1 9 -5 10 -3 2 -31 27 -62 55 -38 34 -52 53 -44 58 8 5 -14 34 -70 89 -93
93 -149 160 -133 160 6 0 11 5 11 10 0 6 -6 10 -14 10 -25 0 -165 158 -176
198 -7 27 -37 65 -110 137 -62 62 -100 108 -100 121 0 23 -29 88 -37 81 -2 -3
3 -22 12 -42 26 -63 10 -51 -42 30 -26 42 -72 113 -100 157 -29 45 -53 83 -53
86 0 3 11 -5 25 -18 45 -43 26 -5 -21 40 -55 54 -72 84 -79 142 -8 58 5 198
18 195 5 -1 12 4 14 11 3 6 0 12 -6 12 -6 0 -11 8 -11 19 0 21 25 45 38 37 12
-7 36 44 33 72 -1 12 2 22 8 22 6 0 8 7 4 17 -5 13 -2 15 16 10 18 -4 21 -2
16 13 -4 13 -1 17 11 16 11 -1 21 13 31 41 13 39 43 67 43 40 0 -6 13 3 29 21
33 36 41 39 41 17 0 -8 6 -15 13 -15 9 0 12 9 10 28 -4 21 4 35 35 65 38 38
40 38 68 24 22 -11 59 -14 143 -13 104 2 120 0 165 -22 58 -28 148 -116 173
-170 9 -20 19 -39 22 -42 6 -5 10 -52 10 -133 1 -73 -10 -87 -72 -88 -70 -2
-82 -1 -156 5 -62 6 -63 5 -50 -15 8 -11 52 -39 99 -63 78 -39 85 -46 90 -76
4 -26 11 -36 30 -40 15 -3 26 -15 30 -30 3 -13 11 -25 18 -28 15 -5 16 10 0
26 -15 15 -3 16 23 2 10 -6 19 -19 19 -30 0 -22 -16 -35 -25 -20 -7 11 -25 4
-25 -10 0 -21 36 -20 53 2 l19 22 19 -24 c43 -54 109 -219 109 -271 0 -16 4
-29 9 -29 5 0 12 -39 15 -87 4 -49 11 -117 17 -153 14 -90 12 -316 -5 -430 -7
-52 -12 -101 -10 -107 14 -47 15 -48 29 -19 8 16 15 39 15 52 0 12 5 26 10 29
14 9 37 65 45 113 3 22 13 43 21 46 8 3 14 13 14 21 0 9 5 13 11 10 7 -5 8 4
4 27 -9 46 18 182 50 254 27 60 75 220 75 248 0 10 -6 13 -16 9 -14 -5 -16 -2
-10 20 18 72 40 98 48 60 6 -25 48 112 53 168 4 54 38 140 66 165 10 9 19 21
19 27 0 5 7 25 16 44 11 23 19 30 25 22 8 -13 49 63 49 91 0 21 72 130 86 130
15 0 54 77 54 106 0 18 -5 24 -22 24 -29 0 -43 10 -44 33 -3 58 -3 58 -26 45
-13 -7 -26 -17 -30 -23 -5 -6 -30 11 -60 41 -139 136 -140 136 -165 131 -34
-6 -65 37 -102 145 -17 47 -47 116 -67 153 l-36 67 -2 237 c-1 254 2 277 60
392 13 25 21 55 18 66 -8 28 90 239 142 310 13 17 24 35 24 39 0 4 14 20 32
36 20 18 26 28 16 28 -8 0 -23 -9 -33 -20 -31 -34 -29 -13 2 27 30 37 53 76
53 87 0 3 -6 6 -13 6 -15 0 -97 -85 -97 -100 0 -5 -6 -7 -13 -4 -7 2 -18 -8
-25 -23 -6 -16 -25 -46 -42 -68 -16 -22 -48 -69 -69 -105 -22 -36 -55 -81 -73
-101 -18 -21 -40 -45 -48 -56 -107 -133 -287 -334 -330 -367 -14 -11 -52 -47
-85 -82 -58 -60 -101 -91 -112 -80 -3 3 -12 -1 -19 -9 -8 -8 -21 -12 -28 -9
-8 3 -17 1 -21 -5 -3 -6 -16 -11 -29 -11 -32 0 -216 69 -245 91 -13 10 -27 16
-32 13 -4 -2 -27 5 -50 16 -59 30 -122 77 -109 82 6 2 -16 21 -50 43 -47 30
-66 50 -81 84 -11 25 -17 51 -15 58 7 17 -10 17 -18 1 -5 -10 -7 -10 -12 -1
-3 6 -18 29 -33 51 -16 21 -31 48 -35 59 -4 12 -16 23 -27 26 -12 3 -18 10
-14 16 3 7 -2 11 -14 11 -34 0 -130 105 -143 157 -7 28 -14 40 -18 32 -12 -19
-38 -3 -54 33 -9 21 -15 26 -15 15 -1 -10 -5 -16 -10 -12 -16 9 -84 159 -83
181 1 13 -7 25 -23 32 -14 7 -25 20 -25 31 0 13 -9 20 -31 25 -47 9 -62 7 -56
-6z"/>
<path d="M7287 9214 c-5 -5 47 -114 78 -164 4 -7 8 -41 9 -77 1 -51 -3 -67
-15 -74 -11 -5 -15 -17 -12 -32 5 -27 -21 -87 -38 -87 -6 0 -9 13 -7 29 4 41
-24 68 -70 68 l-38 0 4 -58 c3 -39 0 -64 -8 -74 -11 -13 -15 -13 -21 -3 -7 10
-9 10 -9 -2 1 -8 7 -24 15 -34 9 -11 12 -29 9 -43 -4 -13 -1 -38 7 -56 27 -68
75 -99 115 -72 13 8 32 15 42 15 10 0 28 10 40 23 11 12 27 27 35 34 32 26 59
124 55 200 -2 56 0 72 10 68 23 -9 12 40 -27 121 -21 43 -50 90 -65 103 -14
14 -40 46 -57 73 -30 47 -39 54 -52 42z"/>
<path d="M7557 8768 c-10 -24 -17 -50 -17 -58 0 -23 -43 -110 -54 -110 -6 0
-17 -9 -24 -20 -7 -11 -8 -20 -3 -20 10 0 -21 -69 -31 -70 -5 0 -8 7 -8 15 0
19 -9 19 -32 -2 -13 -11 -18 -12 -18 -3 0 10 -3 10 -15 0 -8 -7 -15 -19 -15
-26 0 -12 -4 -12 -23 1 -22 14 -25 14 -42 -5 -10 -11 -28 -20 -40 -20 -12 0
-30 -8 -39 -19 -15 -17 -15 -19 -1 -25 9 -3 25 -6 34 -6 11 0 26 -16 37 -37
10 -21 21 -39 24 -41 3 -1 4 -24 1 -50 -2 -26 -4 -62 -4 -79 0 -18 -4 -33 -8
-33 -5 0 -9 -28 -9 -63 0 -58 -2 -64 -35 -94 -42 -39 -47 -84 -14 -119 25 -27
32 -83 12 -106 -8 -9 -16 -34 -17 -55 -1 -21 -6 -44 -10 -52 -6 -10 -4 -12 10
-7 23 7 54 -10 39 -21 -5 -5 -11 -26 -13 -48 -1 -22 -4 -47 -6 -55 -10 -39
-19 -60 -25 -60 -3 0 -7 -35 -8 -77 -2 -45 -7 -79 -14 -84 -8 -5 -9 -15 -2
-35 5 -16 8 -55 6 -86 -2 -41 1 -58 10 -58 8 0 13 -21 14 -68 3 -140 132 -504
204 -577 11 -11 27 -29 35 -40 l15 -20 -5 20 c-15 56 -77 230 -86 240 -5 7 -7
14 -4 17 3 3 -2 32 -10 64 -29 119 -26 576 5 595 7 4 9 14 6 22 -13 33 47 217
70 217 8 0 13 12 13 28 0 17 9 37 22 48 31 28 78 105 78 128 -1 20 -2 20 -14
4 -14 -19 -36 -24 -36 -8 0 5 -13 25 -30 43 -31 36 -41 58 -16 38 18 -15 41
11 32 36 -5 13 -9 14 -15 5 -9 -15 -37 -7 -45 13 -2 7 -1 26 4 42 l8 28 1 -33
c1 -19 5 -31 11 -27 6 3 10 48 10 98 0 103 9 169 21 162 12 -8 17 21 24 130 4
55 11 116 16 135 13 46 30 151 34 219 3 29 9 59 15 67 8 8 8 19 2 29 -7 13
-12 8 -25 -27z"/>
<path d="M4527 8683 c-4 -3 -8 -18 -8 -32 -1 -16 -3 -19 -6 -9 -5 18 -30 31
-44 22 -14 -8 -11 -24 6 -24 18 0 29 -57 22 -112 -13 -99 -134 -433 -174 -481
-27 -33 -32 -14 -8 32 8 16 19 59 25 96 6 37 18 78 27 91 12 18 16 51 17 127
l1 101 -42 16 c-32 12 -50 28 -73 64 -17 27 -34 45 -37 42 -4 -4 -22 8 -40 26
-31 30 -33 31 -33 10 0 -12 4 -22 10 -22 5 0 7 -7 4 -15 -3 -8 8 -37 25 -65
28 -45 31 -59 31 -127 0 -60 -4 -79 -17 -89 -14 -11 -15 -15 -5 -22 9 -6 11
-18 6 -35 -6 -28 -20 -36 -22 -14 -1 6 -4 36 -8 65 -5 37 -3 52 5 52 8 0 7 6
-4 16 -22 23 -63 10 -71 -21 -3 -14 -10 -22 -15 -19 -5 3 -12 -3 -15 -13 -3
-10 -15 -40 -26 -66 -10 -27 -26 -94 -34 -149 -18 -118 -12 -146 45 -206 31
-32 44 -39 62 -35 34 9 96 49 108 70 5 10 13 15 17 11 9 -9 -12 -41 -70 -102
-48 -53 -66 -59 -173 -59 -24 0 -43 -4 -43 -9 0 -5 -10 -6 -22 -2 -20 6 -21 5
-9 -10 7 -9 19 -16 26 -16 29 0 85 -190 80 -272 -2 -43 -12 -59 -21 -35 -5 14
-10 12 -32 -13 -15 -17 -34 -30 -44 -30 -9 0 -20 -4 -23 -10 -3 -5 -14 -10
-24 -10 -22 0 -55 -35 -46 -49 3 -6 14 -11 24 -11 10 0 31 -12 47 -27 42 -39
58 -123 40 -207 -8 -33 -14 -68 -14 -76 -2 -38 -16 -101 -24 -106 -5 -3 -6 6
-2 20 4 16 2 26 -5 26 -6 0 -11 -10 -11 -22 0 -13 -9 -36 -20 -53 -24 -37 -25
-45 -2 -45 9 0 27 15 39 34 22 34 52 41 75 18 7 -7 9 -12 5 -12 -4 0 -3 -9 3
-21 6 -11 14 -47 17 -80 5 -55 3 -60 -13 -57 -18 3 -19 -6 -22 -120 -2 -78 -6
-121 -13 -117 -12 8 -3 -62 18 -133 17 -60 12 -83 -7 -28 -6 20 -16 36 -22 36
-16 0 0 -124 27 -205 12 -38 26 -86 30 -105 4 -19 12 -44 19 -55 7 -11 20 -60
30 -110 21 -103 38 -157 74 -235 22 -46 27 -51 30 -31 2 13 -1 28 -7 34 -6 6
-11 22 -11 35 0 13 -4 31 -9 41 -5 9 -14 46 -19 82 -5 35 -24 132 -42 214 -27
126 -31 161 -25 220 4 39 7 86 8 105 0 19 7 41 14 49 8 7 14 30 13 50 -3 51
-1 58 9 42 7 -10 10 -8 15 10 10 33 53 145 96 244 33 78 81 171 106 205 44 62
133 150 152 150 9 0 22 10 27 23 6 12 18 21 28 21 13 -1 15 4 11 22 -4 15 -2
24 5 24 6 0 11 7 11 16 0 10 -18 0 -55 -32 l-56 -47 -44 47 c-25 26 -45 53
-45 60 0 7 -9 23 -20 36 -11 13 -20 28 -21 34 0 6 -2 22 -4 36 -7 42 7 154 16
139 5 -8 9 -12 9 -9 1 3 3 23 5 45 4 41 33 178 43 205 3 8 6 20 7 25 2 6 8 30
15 55 7 25 13 50 14 55 2 6 10 27 19 49 9 21 17 47 17 57 0 42 23 121 40 137
19 17 36 100 39 187 1 22 6 76 11 120 12 99 13 95 -3 95 -8 0 -11 12 -9 38 5
65 5 133 0 137 -3 3 -8 2 -11 -2z"/>
<path d="M12665 7980 c-3 -6 1 -7 9 -4 18 7 21 14 7 14 -6 0 -13 -4 -16 -10z"/>
</g>
</svg>
